<?xml version="1.0" encoding="utf-8"?>
<!-- Generator: Adobe Illustrator 21.0.2, SVG Export Plug-In . SVG Version: 6.00 Build 0)  -->
<svg version="1.1" id="Layer_1" xmlns="http://www.w3.org/2000/svg" xmlns:xlink="http://www.w3.org/1999/xlink" x="0px" y="0px"
	 viewBox="0 0 362 612" style="enable-background:new 0 0 362 612;" xml:space="preserve">
<style type="text/css">
	.st0{clip-path:url(#SVGID_2_);}
	.st1{fill:url(#SVGID_3_);}
	.st2{clip-path:url(#SVGID_5_);}
	.st3{fill:url(#SVGID_6_);}
	.st4{clip-path:url(#SVGID_8_);}
	.st5{fill:url(#SVGID_9_);}
	.st6{clip-path:url(#SVGID_11_);}
	.st7{fill:url(#SVGID_12_);}
	.st8{clip-path:url(#SVGID_14_);}
	.st9{fill:url(#SVGID_15_);}
	.st10{clip-path:url(#SVGID_17_);}
	.st11{fill:url(#SVGID_18_);}
	.st12{clip-path:url(#SVGID_20_);}
	.st13{fill:url(#SVGID_21_);}
	.st14{clip-path:url(#SVGID_23_);}
	.st15{fill:url(#SVGID_24_);}
	.st16{clip-path:url(#SVGID_26_);}
	.st17{fill:url(#SVGID_27_);}
	.st18{clip-path:url(#SVGID_29_);}
	.st19{fill:url(#SVGID_30_);}
	.st20{clip-path:url(#SVGID_32_);}
	.st21{fill:url(#SVGID_33_);}
	.st22{clip-path:url(#SVGID_35_);}
	.st23{fill:url(#SVGID_36_);}
	.st24{clip-path:url(#SVGID_38_);}
	.st25{fill:url(#SVGID_39_);}
	.st26{clip-path:url(#SVGID_41_);}
	.st27{fill:url(#SVGID_42_);}
	.st28{fill:none;stroke:#A0A0A0;stroke-width:17;stroke-miterlimit:10;}
	.st29{fill:none;stroke:#A0A0A0;stroke-width:17;stroke-miterlimit:10;stroke-dasharray:0.4996,3.9965;}
	.st30{fill:none;stroke:url(#SVGID_43_);stroke-width:5;stroke-miterlimit:10;}
	.st31{fill:url(#SVGID_44_);}
	.st32{fill:url(#SVGID_45_);}
	.st33{fill:none;stroke:url(#SVGID_46_);stroke-width:9;stroke-miterlimit:10;}
	.st34{fill:none;stroke:url(#SVGID_47_);stroke-width:9;stroke-miterlimit:10;}
	.st35{fill:#231F20;}
	.st36{fill:none;stroke:url(#SVGID_48_);stroke-width:9;stroke-miterlimit:10;}
	.st37{clip-path:url(#SVGID_50_);}
	.st38{fill:url(#SVGID_51_);}
	.st39{clip-path:url(#SVGID_53_);}
	.st40{fill:url(#SVGID_54_);}
	.st41{clip-path:url(#SVGID_56_);}
	.st42{fill:url(#SVGID_57_);}
	.st43{clip-path:url(#SVGID_59_);}
	.st44{fill:url(#SVGID_60_);}
	.st45{clip-path:url(#SVGID_62_);}
	.st46{fill:url(#SVGID_63_);}
	.st47{clip-path:url(#SVGID_65_);}
	.st48{fill:url(#SVGID_66_);}
	.st49{clip-path:url(#SVGID_68_);}
	.st50{fill:url(#SVGID_69_);}
	.st51{clip-path:url(#SVGID_71_);}
	.st52{fill:url(#SVGID_72_);}
	.st53{fill:url(#SVGID_73_);}
	.st54{fill:url(#SVGID_74_);}
	.st55{fill:#EFEBE3;}
	.st56{fill:url(#SVGID_75_);}
	.st57{fill:url(#SVGID_76_);}
	.st58{fill:url(#SVGID_77_);}
	.st59{fill:url(#SVGID_78_);}
	.st60{clip-path:url(#SVGID_80_);}
	.st61{fill:url(#SVGID_81_);}
	.st62{clip-path:url(#SVGID_83_);}
	.st63{fill:url(#SVGID_84_);}
	.st64{clip-path:url(#SVGID_86_);}
	.st65{fill:url(#SVGID_87_);}
	.st66{clip-path:url(#SVGID_89_);}
	.st67{fill:url(#SVGID_90_);}
	.st68{clip-path:url(#SVGID_92_);}
	.st69{fill:url(#SVGID_93_);}
	.st70{clip-path:url(#SVGID_95_);}
	.st71{fill:url(#SVGID_96_);}
	.st72{clip-path:url(#SVGID_98_);}
	.st73{fill:url(#SVGID_99_);}
</style>
<g>
	<defs>
		<path id="SVGID_1_" d="M155.9,35.7c-25.5,31.5,32.1,84.1,50.8,103.1c24.8,25,51.9,47.8,78.6,70.6c7.5,6.4,44.2,45.4,57.1,34.2
			c12.3-10.8-22.8-62-67.9-122.8c-12.2-16.5-25-32.4-38.5-47.8c-8.7-9.8-17.6-21-28.2-29.6c-4.4-3.7-9.3-6.8-14.6-9.2
			c-10.3-4.7-27-9.1-36.2,0.1c-0.4,0.4-0.8,0.8-1.3,1.3"/>
	</defs>
	<clipPath id="SVGID_2_">
		<use xlink:href="#SVGID_1_"  style="overflow:visible;"/>
	</clipPath>
	<g class="st0">
		
			<linearGradient id="SVGID_3_" gradientUnits="userSpaceOnUse" x1="-242.6032" y1="418.4108" x2="-240.5605" y2="418.4108" gradientTransform="matrix(96.6968 57.7353 43.8548 -91.4855 5268.8472 52367.1406)">
			<stop  offset="0" style="stop-color:#35BEED"/>
			<stop  offset="0.5" style="stop-color:#31A7DF"/>
			<stop  offset="1" style="stop-color:#2190CE"/>
		</linearGradient>
		<polygon class="st1" points="97.6,126.2 346.2,274.6 406.7,148.6 158,0.1 		"/>
	</g>
</g>
<g>
	<defs>
		<path id="SVGID_4_" d="M273.6,147.2c18.1,15.8,38,30,57.5,44.1c5.1,3.7,18.7,15.5,25.2,9c7.4-7.3-13.7-34.9-40.6-67.5
			c-6.3-7.6-12.9-15.1-19.8-22.2c-4.5-4.7-12-12.5-20.3-18.2c-10.4-7.2-22-11.2-30.5-1.6c-1.4,1.6-2.5,3.4-3.3,5.4
			C235.2,114.3,262.8,137.9,273.6,147.2"/>
	</defs>
	<clipPath id="SVGID_5_">
		<use xlink:href="#SVGID_4_"  style="overflow:visible;"/>
	</clipPath>
	<g class="st2">
		
			<linearGradient id="SVGID_6_" gradientUnits="userSpaceOnUse" x1="-237.0951" y1="419.8239" x2="-235.731" y2="419.8239" gradientTransform="matrix(86.5837 40.276 38.9716 -86.0016 4414.3428 45773.0898)">
			<stop  offset="0" style="stop-color:#CF74A9"/>
			<stop  offset="0.26" style="stop-color:#C84B97"/>
			<stop  offset="0.5" style="stop-color:#C02184"/>
			<stop  offset="1" style="stop-color:#962B87"/>
		</linearGradient>
		<polygon class="st3" points="213.5,155.8 352.5,220.4 392.2,132.9 253.2,68.2 		"/>
	</g>
</g>
<g>
	<defs>
		<path id="SVGID_7_" d="M243.2,75.1C233.2,42.5,170,79.8,155.1,89c-39.5,24.3-74,40.8-69.6,51.4c4.4,10.6,41.3,0.8,85.5-12.8
			c12.1-3.7,40.4-11.1,58-23.4c8-5.6,13.8-12.2,14.9-20C244.4,81.2,244.1,78.1,243.2,75.1"/>
	</defs>
	<clipPath id="SVGID_8_">
		<use xlink:href="#SVGID_7_"  style="overflow:visible;"/>
	</clipPath>
	<g class="st4">
		
			<linearGradient id="SVGID_9_" gradientUnits="userSpaceOnUse" x1="-234.2538" y1="406.9663" x2="-232.3505" y2="406.9663" gradientTransform="matrix(-55.0245 51.3456 51.3456 55.0245 -33578.9609 -10307.918)">
			<stop  offset="0" style="stop-color:#CFE0A2"/>
			<stop  offset="0.5" style="stop-color:#A8CD7A"/>
			<stop  offset="1" style="stop-color:#76B342"/>
		</linearGradient>
		<polygon class="st5" points="167.4,-43.3 304.3,103.4 160.6,237.5 23.7,90.8 		"/>
	</g>
</g>
<g>
	<defs>
		<path id="SVGID_10_" d="M339.5,384.2c-42.5-32.4-89,72.7-99.7,97.9c-28.2,67-57.1,119.5-41.8,129s53.4-36.5,97.4-94.3
			c12-15.7,41.4-50.9,52.6-82.7c5.1-14.4,6.5-28.1,0.8-39c-2.2-4.2-5.4-7.9-9.3-10.8"/>
	</defs>
	<clipPath id="SVGID_11_">
		<use xlink:href="#SVGID_10_"  style="overflow:visible;"/>
	</clipPath>
	<g class="st6">
		
			<linearGradient id="SVGID_12_" gradientUnits="userSpaceOnUse" x1="-238.7422" y1="409.3611" x2="-235.7596" y2="409.3611" gradientTransform="matrix(-14.8911 73.7721 73.7721 14.8911 -33477.8594 11911.4883)">
			<stop  offset="0" style="stop-color:#CFE0A2"/>
			<stop  offset="0.5" style="stop-color:#A8CD7A"/>
			<stop  offset="1" style="stop-color:#76B342"/>
		</linearGradient>
		<polygon class="st7" points="134.9,302.4 443.2,364.6 382.2,666.6 74,604.4 		"/>
	</g>
</g>
<g>
	<defs>
		<path id="SVGID_13_" d="M85.8,26.6C69.6,37.7-11.9,81.9,1.2,108.3c8.1,16.2,52.2,3.2,104.7-15.5C135.4,82.4,192.4,49,192.4,49
			c-10-30.1-29.4-42.4-51.7-42.4C123.1,6.6,103.7,14.2,85.8,26.6"/>
	</defs>
	<clipPath id="SVGID_14_">
		<use xlink:href="#SVGID_13_"  style="overflow:visible;"/>
	</clipPath>
	<g class="st8">
		
			<linearGradient id="SVGID_15_" gradientUnits="userSpaceOnUse" x1="-241.5963" y1="409.6177" x2="-239.2321" y2="409.6177" gradientTransform="matrix(-43.55 56.82 59 64.7 -34549.4883 -12773.4492)">
			<stop  offset="0" style="stop-color:#F29054"/>
			<stop  offset="0.5" style="stop-color:#EE7724"/>
			<stop  offset="1" style="stop-color:#D06329"/>
		</linearGradient>
		<polygon class="st9" points="81.4,-115.1 -61,70.7 99.1,246.2 241.5,60.4 		"/>
	</g>
</g>
</svg>
