<?xml version="1.0" encoding="utf-8"?>
<!-- Generator: Adobe Illustrator 21.0.2, SVG Export Plug-In . SVG Version: 6.00 Build 0)  -->
<svg version="1.1" id="Layer_1" xmlns="http://www.w3.org/2000/svg" xmlns:xlink="http://www.w3.org/1999/xlink" x="0px" y="0px"
	 viewBox="0 0 210 208" style="enable-background:new 0 0 210 208;" xml:space="preserve">
<style type="text/css">
	.st0{clip-path:url(#SVGID_2_);}
	.st1{fill:url(#SVGID_3_);}
	.st2{clip-path:url(#SVGID_5_);}
	.st3{fill:url(#SVGID_6_);}
	.st4{clip-path:url(#SVGID_8_);}
	.st5{fill:url(#SVGID_9_);}
	.st6{clip-path:url(#SVGID_11_);}
	.st7{fill:url(#SVGID_12_);}
	.st8{clip-path:url(#SVGID_14_);}
	.st9{fill:url(#SVGID_15_);}
	.st10{clip-path:url(#SVGID_17_);}
	.st11{fill:url(#SVGID_18_);}
	.st12{clip-path:url(#SVGID_20_);}
	.st13{fill:url(#SVGID_21_);}
	.st14{clip-path:url(#SVGID_23_);}
	.st15{fill:url(#SVGID_24_);}
	.st16{clip-path:url(#SVGID_26_);}
	.st17{fill:url(#SVGID_27_);}
	.st18{clip-path:url(#SVGID_29_);}
	.st19{fill:url(#SVGID_30_);}
	.st20{clip-path:url(#SVGID_32_);}
	.st21{fill:url(#SVGID_33_);}
	.st22{clip-path:url(#SVGID_35_);}
	.st23{fill:url(#SVGID_36_);}
	.st24{clip-path:url(#SVGID_38_);}
	.st25{fill:url(#SVGID_39_);}
	.st26{clip-path:url(#SVGID_41_);}
	.st27{fill:url(#SVGID_42_);}
	.st28{fill:none;stroke:#A0A0A0;stroke-width:17;stroke-miterlimit:10;}
	.st29{fill:none;stroke:#A0A0A0;stroke-width:17;stroke-miterlimit:10;stroke-dasharray:0.4996,3.9965;}
	.st30{fill:none;stroke:url(#SVGID_43_);stroke-width:5;stroke-miterlimit:10;}
	.st31{fill:url(#SVGID_44_);}
	.st32{fill:url(#SVGID_45_);}
	.st33{fill:none;stroke:url(#SVGID_46_);stroke-width:9;stroke-miterlimit:10;}
	.st34{fill:none;stroke:url(#SVGID_47_);stroke-width:9;stroke-miterlimit:10;}
	.st35{fill:#231F20;}
	.st36{fill:none;stroke:url(#SVGID_48_);stroke-width:9;stroke-miterlimit:10;}
	.st37{clip-path:url(#SVGID_50_);}
	.st38{fill:url(#SVGID_51_);}
	.st39{clip-path:url(#SVGID_53_);}
	.st40{fill:url(#SVGID_54_);}
	.st41{clip-path:url(#SVGID_56_);}
	.st42{fill:url(#SVGID_57_);}
	.st43{clip-path:url(#SVGID_59_);}
	.st44{fill:url(#SVGID_60_);}
	.st45{clip-path:url(#SVGID_62_);}
	.st46{fill:url(#SVGID_63_);}
	.st47{clip-path:url(#SVGID_65_);}
	.st48{fill:url(#SVGID_66_);}
	.st49{clip-path:url(#SVGID_68_);}
	.st50{fill:url(#SVGID_69_);}
	.st51{clip-path:url(#SVGID_71_);}
	.st52{fill:url(#SVGID_72_);}
	.st53{fill:url(#SVGID_73_);}
	.st54{fill:url(#SVGID_74_);}
	.st55{fill:#EFEBE3;}
	.st56{fill:url(#SVGID_75_);}
	.st57{fill:url(#SVGID_76_);}
	.st58{fill:url(#SVGID_77_);}
	.st59{fill:url(#SVGID_78_);}
	.st60{clip-path:url(#SVGID_80_);}
	.st61{fill:url(#SVGID_81_);}
	.st62{clip-path:url(#SVGID_83_);}
	.st63{fill:url(#SVGID_84_);}
	.st64{clip-path:url(#SVGID_86_);}
	.st65{fill:url(#SVGID_87_);}
	.st66{clip-path:url(#SVGID_89_);}
	.st67{fill:url(#SVGID_90_);}
	.st68{clip-path:url(#SVGID_92_);}
	.st69{fill:url(#SVGID_93_);}
	.st70{clip-path:url(#SVGID_95_);}
	.st71{fill:url(#SVGID_96_);}
	.st72{clip-path:url(#SVGID_98_);}
	.st73{fill:url(#SVGID_99_);}
</style>
<linearGradient id="SVGID_2_" gradientUnits="userSpaceOnUse" x1="1.818989e-12" y1="105.25" x2="206.5" y2="105.25">
	<stop  offset="0" style="stop-color:#CF74A9"/>
	<stop  offset="0.26" style="stop-color:#C84B97"/>
	<stop  offset="0.5" style="stop-color:#C02184"/>
	<stop  offset="1" style="stop-color:#962B87"/>
</linearGradient>
<circle style="fill:none;stroke:url(#SVGID_2_);stroke-width:9;stroke-miterlimit:10;" cx="103.3" cy="105.3" r="98.8"/>
<path d="M155,114.4c-1.1-0.7-24-14.8-39.1-24.1l-4.9-3l5.8-0.5c0.7-0.1,17.2-1.4,23.2-1.9c6-0.5,6.6-2.9,6.5-4.9
	c0-0.7-0.2-1.2-0.7-1.6c-1.2-1.1-4.7-1.1-4.7-1.1c-0.4,0-37.5-1.6-44.8-1.4c-1,0-2,0-3.3-0.1c-4-0.1-8.4-0.2-13,1.8l-1,0.5
	l-15.8-9.3L49.1,96.1l14.7,8.7v1.1c0.6,13.1,12.4,21.1,19.3,24.7c4.3,2.3,21.9,10,29.4,13.4c2.4,1.1,3.9,1.7,4.1,1.8
	c2.8,1.4,3.7,0.6,4.3-0.4c0.7-1.2,0.5-1.9,0.2-2.4c-0.4-0.6-1-1.1-1.7-1.6c-1.2-0.7-19.9-12.5-20.7-13l1.7-3.4
	c11.6,4.7,21.7,9.2,27.1,11.6c1.7,0.7,3.1,1.4,3.7,1.7v-0.1l0,0c0,0,2.9,1.4,4.3-1.1c1.4-2.3,0-3.7-1-4.3c-1.1-0.6-17.7-9-28.7-14.6
	l1.7-3.5c0.4,0.1,33.5,15.9,34.9,16.5c0.5,0.2,3.1,1.2,4.7-1.4c0.6-1,0.7-1.9,0.6-2.8c-0.2-0.8-0.8-1.7-1.9-2.3
	c-0.7-0.5-22.2-12.6-30.2-17.3l1.8-3.4c3.4,1.6,32.6,15.7,34,16.4c0.8,0.5,3.1,0.8,4.5-1.3C157.5,116.5,155.4,114.7,155,114.4z"/>
</svg>
