<?xml version="1.0" encoding="utf-8"?>
<!-- Generator: Adobe Illustrator 21.0.2, SVG Export Plug-In . SVG Version: 6.00 Build 0)  -->
<svg version="1.1" id="Layer_1" xmlns="http://www.w3.org/2000/svg" xmlns:xlink="http://www.w3.org/1999/xlink" x="0px" y="0px"
	 viewBox="0 0 332 444" style="enable-background:new 0 0 332 444;" xml:space="preserve">
<style type="text/css">
	.st0{clip-path:url(#SVGID_2_);}
	.st1{fill:url(#SVGID_3_);}
	.st2{clip-path:url(#SVGID_5_);}
	.st3{fill:url(#SVGID_6_);}
	.st4{clip-path:url(#SVGID_8_);}
	.st5{fill:url(#SVGID_9_);}
	.st6{clip-path:url(#SVGID_11_);}
	.st7{fill:url(#SVGID_12_);}
	.st8{clip-path:url(#SVGID_14_);}
	.st9{fill:url(#SVGID_15_);}
	.st10{clip-path:url(#SVGID_17_);}
	.st11{fill:url(#SVGID_18_);}
	.st12{clip-path:url(#SVGID_20_);}
	.st13{fill:url(#SVGID_21_);}
	.st14{clip-path:url(#SVGID_23_);}
	.st15{fill:url(#SVGID_24_);}
	.st16{clip-path:url(#SVGID_26_);}
	.st17{fill:url(#SVGID_27_);}
	.st18{clip-path:url(#SVGID_29_);}
	.st19{fill:url(#SVGID_30_);}
	.st20{clip-path:url(#SVGID_32_);}
	.st21{fill:url(#SVGID_33_);}
	.st22{clip-path:url(#SVGID_35_);}
	.st23{fill:url(#SVGID_36_);}
	.st24{clip-path:url(#SVGID_38_);}
	.st25{fill:url(#SVGID_39_);}
	.st26{clip-path:url(#SVGID_41_);}
	.st27{fill:url(#SVGID_42_);}
	.st28{fill:none;stroke:#A0A0A0;stroke-width:17;stroke-miterlimit:10;}
	.st29{fill:none;stroke:#A0A0A0;stroke-width:17;stroke-miterlimit:10;stroke-dasharray:0.4996,3.9965;}
	.st30{fill:none;stroke:url(#SVGID_43_);stroke-width:5;stroke-miterlimit:10;}
	.st31{fill:url(#SVGID_44_);}
	.st32{fill:url(#SVGID_45_);}
	.st33{fill:none;stroke:url(#SVGID_46_);stroke-width:9;stroke-miterlimit:10;}
	.st34{fill:none;stroke:url(#SVGID_47_);stroke-width:9;stroke-miterlimit:10;}
	.st35{fill:#231F20;}
	.st36{fill:none;stroke:url(#SVGID_48_);stroke-width:9;stroke-miterlimit:10;}
	.st37{clip-path:url(#SVGID_50_);}
	.st38{fill:url(#SVGID_51_);}
	.st39{clip-path:url(#SVGID_53_);}
	.st40{fill:url(#SVGID_54_);}
	.st41{clip-path:url(#SVGID_56_);}
	.st42{fill:url(#SVGID_57_);}
	.st43{clip-path:url(#SVGID_59_);}
	.st44{fill:url(#SVGID_60_);}
	.st45{clip-path:url(#SVGID_62_);}
	.st46{fill:url(#SVGID_63_);}
	.st47{clip-path:url(#SVGID_65_);}
	.st48{fill:url(#SVGID_66_);}
	.st49{clip-path:url(#SVGID_68_);}
	.st50{fill:url(#SVGID_69_);}
	.st51{clip-path:url(#SVGID_71_);}
	.st52{fill:url(#SVGID_72_);}
	.st53{fill:url(#SVGID_73_);}
	.st54{fill:url(#SVGID_74_);}
	.st55{fill:#EFEBE3;}
	.st56{fill:url(#SVGID_75_);}
	.st57{fill:url(#SVGID_76_);}
	.st58{fill:url(#SVGID_77_);}
	.st59{fill:url(#SVGID_78_);}
	.st60{clip-path:url(#SVGID_80_);}
	.st61{fill:url(#SVGID_81_);}
	.st62{clip-path:url(#SVGID_83_);}
	.st63{fill:url(#SVGID_84_);}
	.st64{clip-path:url(#SVGID_86_);}
	.st65{fill:url(#SVGID_87_);}
	.st66{clip-path:url(#SVGID_89_);}
	.st67{fill:url(#SVGID_90_);}
	.st68{clip-path:url(#SVGID_92_);}
	.st69{fill:url(#SVGID_93_);}
	.st70{clip-path:url(#SVGID_95_);}
	.st71{fill:url(#SVGID_96_);}
	.st72{clip-path:url(#SVGID_98_);}
	.st73{fill:url(#SVGID_99_);}
</style>
<g>
	<defs>
		<path id="SVGID_49_" d="M46.3,278.5c-17.9,21.8,6.8,50.1,23.6,63.6c28.9,23,65,39.2,99.3,52.1c81.8,30.5,146.3,62.7,156.9,44.1
			c10.5-18.6-47-61.8-118.8-111.5c-26.3-18.5-53.9-35.1-82.6-49.6c-6.4-3.3-13.1-6-19.9-8.2c-20.3-6.6-43.5-8-58.2,9.4L46.3,278.5z"
			/>
	</defs>
	<clipPath id="SVGID_2_">
		<use xlink:href="#SVGID_49_"  style="overflow:visible;"/>
	</clipPath>
	<g class="st0">
		
			<linearGradient id="SVGID_3_" gradientUnits="userSpaceOnUse" x1="-2103.6689" y1="-109.7681" x2="-2100.8464" y2="-109.7681" gradientTransform="matrix(94.2625 15.3286 14.2277 -93.3467 199922.9375 22344.9766)">
			<stop  offset="0" style="stop-color:#F9E29E"/>
			<stop  offset="6.000000e-02" style="stop-color:#F9E094"/>
			<stop  offset="0.17" style="stop-color:#FADB7A"/>
			<stop  offset="0.31" style="stop-color:#FBD250"/>
			<stop  offset="0.48" style="stop-color:#FDC716"/>
			<stop  offset="0.5" style="stop-color:#FDC50D"/>
			<stop  offset="1" style="stop-color:#F4A81C"/>
		</linearGradient>
		<polygon class="st1" points="-0.5,467.5 327.9,520.9 367.5,261.7 39.1,208.3 		"/>
	</g>
</g>
<g>
	<defs>
		<path id="SVGID_58_" d="M571.4,339c-25.2-22.8-132.5-143-171.9-110.1c-24.1,20.2,15.5,89.5,68.1,170.8
			c29.4,45.6,108.7,128.4,108.7,128.4c46.9-28.9,59.8-66.6,50.9-104.3C620.1,394.1,599.6,364.5,571.4,339"/>
	</defs>
	<clipPath id="SVGID_5_">
		<use xlink:href="#SVGID_58_"  style="overflow:visible;"/>
	</clipPath>
	<g class="st2">
		
			<linearGradient id="SVGID_6_" gradientUnits="userSpaceOnUse" x1="-2135.0583" y1="-111.2418" x2="-2130.9539" y2="-111.2418" gradientTransform="matrix(-65.3243 -29.2892 -49.3681 72.3179 -144327.3125 -54069.6133)">
			<stop  offset="0" style="stop-color:#F29054"/>
			<stop  offset="0.5" style="stop-color:#EE7724"/>
			<stop  offset="1" style="stop-color:#D06329"/>
		</linearGradient>
		<polygon class="st3" points="809.1,274.9 438.3,108.6 205.7,449.4 576.5,615.7 		"/>
	</g>
</g>
<g>
	<defs>
		<path id="SVGID_64_" d="M191.1,238.1c26.1,31.9,55.7,61.7,84.5,91.1c7.6,7.7,27.2,31.6,40.1,22.5c14.5-10.2-13.2-63-49.4-125.8
			c-8.5-14.7-17.4-29.2-27.1-43.2c-6.3-9.3-16.7-24.5-29-36.7c-15.5-15.2-34-25.3-51.1-11.4c-2.8,2.3-5.3,5.1-7.1,8.3
			C135.7,171.3,175.6,219.2,191.1,238.1"/>
	</defs>
	<clipPath id="SVGID_8_">
		<use xlink:href="#SVGID_64_"  style="overflow:visible;"/>
	</clipPath>
	<g class="st4">
		
			<linearGradient id="SVGID_9_" gradientUnits="userSpaceOnUse" x1="-2106.7969" y1="-98.4422" x2="-2104.4565" y2="-98.4422" gradientTransform="matrix(78.625 54.1941 52.8107 -78.2693 171000.1719 106652.5469)">
			<stop  offset="0" style="stop-color:#CF74A9"/>
			<stop  offset="0.26" style="stop-color:#C84B97"/>
			<stop  offset="0.5" style="stop-color:#C02184"/>
			<stop  offset="1" style="stop-color:#962B87"/>
		</linearGradient>
		<polygon class="st5" points="87.1,235.3 303.7,384.6 395.9,247.9 179.3,98.6 		"/>
	</g>
</g>
<g>
	<defs>
		<path id="SVGID_67_" d="M130.4,149.1C105,166.6-23.5,236.2-2.7,277.9c12.8,25.5,82.3,5,165-24.4c46.4-16.4,136.1-69.1,136.1-69.1
			c-15.7-47.4-46.3-66.7-81.4-66.7C189.2,117.6,158.7,129.6,130.4,149.1"/>
	</defs>
	<clipPath id="SVGID_11_">
		<use xlink:href="#SVGID_67_"  style="overflow:visible;"/>
	</clipPath>
	<g class="st6">
		
			<linearGradient id="SVGID_12_" gradientUnits="userSpaceOnUse" x1="-2139.0813" y1="-92.8785" x2="-2135.3574" y2="-92.8785" gradientTransform="matrix(-43.55 56.82 59 64.7 -87462.1406 127661.1094)">
			<stop  offset="0" style="stop-color:#F29054"/>
			<stop  offset="0.5" style="stop-color:#EE7724"/>
			<stop  offset="1" style="stop-color:#D06329"/>
		</linearGradient>
		<polygon class="st7" points="123.5,-74.2 -100.8,218.5 151.4,495.1 375.8,202.4 		"/>
	</g>
</g>
<g>
	<defs>
		<path id="SVGID_70_" d="M295.5,6.2c-42.5-32.4-89,72.7-99.7,97.9c-28.2,67-57.1,119.5-41.8,129s53.4-36.5,97.4-94.3
			c12-15.7,41.4-50.9,52.6-82.7c5.1-14.4,6.5-28.1,0.8-39c-2.2-4.2-5.4-7.9-9.3-10.8"/>
	</defs>
	<clipPath id="SVGID_14_">
		<use xlink:href="#SVGID_70_"  style="overflow:visible;"/>
	</clipPath>
	<g class="st8">
		
			<linearGradient id="SVGID_15_" gradientUnits="userSpaceOnUse" x1="-2124.6624" y1="-91.3002" x2="-2121.6797" y2="-91.3002" gradientTransform="matrix(-14.8911 73.7721 73.7721 14.8911 -24670.3887 158117.1719)">
			<stop  offset="0" style="stop-color:#CFE0A2"/>
			<stop  offset="0.5" style="stop-color:#A8CD7A"/>
			<stop  offset="1" style="stop-color:#76B342"/>
		</linearGradient>
		<polygon class="st9" points="90.9,-75.6 399.2,-13.4 338.2,288.6 30,226.4 		"/>
	</g>
</g>
</svg>
