<?xml version="1.0" encoding="utf-8"?>
<!-- Generator: Adobe Illustrator 21.0.2, SVG Export Plug-In . SVG Version: 6.00 Build 0)  -->
<svg version="1.1" id="Layer_1" xmlns="http://www.w3.org/2000/svg" xmlns:xlink="http://www.w3.org/1999/xlink" x="0px" y="0px"
	 viewBox="0 0 30 30" style="enable-background:new 0 0 30 30;" xml:space="preserve">
<style type="text/css">
	.st0{clip-path:url(#SVGID_2_);}
	.st1{fill:url(#SVGID_3_);}
	.st2{clip-path:url(#SVGID_5_);}
	.st3{fill:url(#SVGID_6_);}
	.st4{clip-path:url(#SVGID_8_);}
	.st5{fill:url(#SVGID_9_);}
	.st6{clip-path:url(#SVGID_11_);}
	.st7{fill:url(#SVGID_12_);}
	.st8{clip-path:url(#SVGID_14_);}
	.st9{fill:url(#SVGID_15_);}
	.st10{clip-path:url(#SVGID_17_);}
	.st11{fill:url(#SVGID_18_);}
	.st12{clip-path:url(#SVGID_20_);}
	.st13{fill:url(#SVGID_21_);}
	.st14{clip-path:url(#SVGID_23_);}
	.st15{fill:url(#SVGID_24_);}
	.st16{clip-path:url(#SVGID_26_);}
	.st17{fill:url(#SVGID_27_);}
	.st18{clip-path:url(#SVGID_29_);}
	.st19{fill:url(#SVGID_30_);}
	.st20{clip-path:url(#SVGID_32_);}
	.st21{fill:url(#SVGID_33_);}
	.st22{clip-path:url(#SVGID_35_);}
	.st23{fill:url(#SVGID_36_);}
	.st24{clip-path:url(#SVGID_38_);}
	.st25{fill:url(#SVGID_39_);}
	.st26{clip-path:url(#SVGID_41_);}
	.st27{fill:url(#SVGID_42_);}
	.st28{fill:none;stroke:#A0A0A0;stroke-width:17;stroke-miterlimit:10;}
	.st29{fill:none;stroke:#A0A0A0;stroke-width:17;stroke-miterlimit:10;stroke-dasharray:0.4996,3.9965;}
	.st30{fill:none;stroke:url(#SVGID_43_);stroke-width:5;stroke-miterlimit:10;}
	.st31{fill:url(#SVGID_44_);}
	.st32{fill:url(#SVGID_45_);}
	.st33{fill:none;stroke:url(#SVGID_46_);stroke-width:9;stroke-miterlimit:10;}
	.st34{fill:none;stroke:url(#SVGID_47_);stroke-width:9;stroke-miterlimit:10;}
	.st35{fill:#231F20;}
	.st36{fill:none;stroke:url(#SVGID_48_);stroke-width:9;stroke-miterlimit:10;}
	.st37{clip-path:url(#SVGID_50_);}
	.st38{fill:url(#SVGID_51_);}
	.st39{clip-path:url(#SVGID_53_);}
	.st40{fill:url(#SVGID_54_);}
	.st41{clip-path:url(#SVGID_56_);}
	.st42{fill:url(#SVGID_57_);}
	.st43{clip-path:url(#SVGID_59_);}
	.st44{fill:url(#SVGID_60_);}
	.st45{clip-path:url(#SVGID_62_);}
	.st46{fill:url(#SVGID_63_);}
	.st47{clip-path:url(#SVGID_65_);}
	.st48{fill:url(#SVGID_66_);}
	.st49{clip-path:url(#SVGID_68_);}
	.st50{fill:url(#SVGID_69_);}
	.st51{clip-path:url(#SVGID_71_);}
	.st52{fill:url(#SVGID_72_);}
	.st53{fill:url(#SVGID_73_);}
	.st54{fill:url(#SVGID_74_);}
	.st55{fill:#EFEBE3;}
	.st56{fill:url(#SVGID_75_);}
	.st57{fill:url(#SVGID_76_);}
	.st58{fill:url(#SVGID_77_);}
	.st59{fill:url(#SVGID_78_);}
	.st60{clip-path:url(#SVGID_80_);}
	.st61{fill:url(#SVGID_81_);}
	.st62{clip-path:url(#SVGID_83_);}
	.st63{fill:url(#SVGID_84_);}
	.st64{clip-path:url(#SVGID_86_);}
	.st65{fill:url(#SVGID_87_);}
	.st66{clip-path:url(#SVGID_89_);}
	.st67{fill:url(#SVGID_90_);}
	.st68{clip-path:url(#SVGID_92_);}
	.st69{fill:url(#SVGID_93_);}
	.st70{clip-path:url(#SVGID_95_);}
	.st71{fill:url(#SVGID_96_);}
	.st72{clip-path:url(#SVGID_98_);}
	.st73{fill:url(#SVGID_99_);}
</style>
<g>
	<g>
		<g>
			<linearGradient id="SVGID_2_" gradientUnits="userSpaceOnUse" x1="0.5532" y1="14.5" x2="29.5534" y2="14.5">
				<stop  offset="0" style="stop-color:#F9E29E"/>
				<stop  offset="6.000000e-02" style="stop-color:#F9E094"/>
				<stop  offset="0.17" style="stop-color:#FADB7A"/>
				<stop  offset="0.31" style="stop-color:#FBD250"/>
				<stop  offset="0.48" style="stop-color:#FDC716"/>
				<stop  offset="0.5" style="stop-color:#FDC50D"/>
				<stop  offset="1" style="stop-color:#F4A81C"/>
			</linearGradient>
			<path style="fill:url(#SVGID_2_);" d="M15.1,29c-8,0-14.5-6.5-14.5-14.5C0.6,6.5,7.1,0,15.1,0s14.5,6.5,14.5,14.5
				C29.6,22.5,23,29,15.1,29z M15.1,0.6C7.4,0.6,1.2,6.8,1.2,14.5s6.2,13.9,13.9,13.9c7.7,0,13.9-6.2,13.9-13.9S22.7,0.6,15.1,0.6z"
				/>
		</g>
		<g>
			<linearGradient id="SVGID_3_" gradientUnits="userSpaceOnUse" x1="2.868" y1="14.5001" x2="27.2386" y2="14.5001">
				<stop  offset="0" style="stop-color:#F9E29E"/>
				<stop  offset="6.000000e-02" style="stop-color:#F9E094"/>
				<stop  offset="0.17" style="stop-color:#FADB7A"/>
				<stop  offset="0.31" style="stop-color:#FBD250"/>
				<stop  offset="0.48" style="stop-color:#FDC716"/>
				<stop  offset="0.5" style="stop-color:#FDC50D"/>
				<stop  offset="1" style="stop-color:#F4A81C"/>
			</linearGradient>
			<circle class="st1" cx="15.1" cy="14.5" r="12.2"/>
		</g>
	</g>
	<g>
		<g>
			<g>
				<path class="st55" d="M17.4,12.8c0.2,0,0.6-0.1,0.9-0.5v0.5h0.8V8.3h-0.8v3.3C18.3,11.8,18,12,17.9,12c-0.2,0-0.2-0.1-0.2-0.3
					V8.3h-0.8V12C16.9,12.4,17,12.8,17.4,12.8z"/>
			</g>
			<g>
				<path class="st55" d="M13.8,11.6c0,0.8,0.4,1.2,1.2,1.2c0.7,0,1.2-0.4,1.2-1.2V9.5c0-0.7-0.5-1.2-1.2-1.2
					c-0.7,0-1.2,0.5-1.2,1.2V11.6z M14.6,9.5c0-0.2,0.1-0.4,0.3-0.4c0.2,0,0.4,0.2,0.4,0.4v2c0,0.2-0.1,0.4-0.3,0.4
					c-0.2,0-0.4-0.2-0.4-0.4V9.5z"/>
			</g>
			<g>
				<polygon class="st55" points="11.9,12.7 12.8,12.7 12.8,10.3 13.8,6.8 12.9,6.8 12.3,9.1 11.7,6.8 10.8,6.8 11.9,10.3 				"/>
			</g>
		</g>
		<g>
			<g>
				<path class="st55" d="M20.3,13.7h-9.6c-1,0-1.9,0.8-1.9,1.9v4.7c0,1,0.8,1.9,1.9,1.9h9.6c1,0,1.9-0.8,1.9-1.9v-4.7
					C22.1,14.5,21.3,13.7,20.3,13.7z M12,20.7h-0.9v-4.8h-0.9v-0.8h2.7v0.8H12V20.7z M15.1,20.7h-0.8v-0.5c-0.1,0.2-0.3,0.3-0.4,0.4
					c-0.4,0.2-1,0.2-1-0.6v-3.5h0.8v3.2c0,0.2,0,0.3,0.2,0.3c0.2,0,0.4-0.2,0.5-0.3v-3.2h0.8V20.7z M18,19.9c0,0.5-0.2,0.9-0.7,0.9
					c-0.3,0-0.5-0.1-0.7-0.4v0.3h-0.8v-5.6h0.8v1.8c0.2-0.2,0.4-0.4,0.7-0.4c0.6,0,0.8,0.5,0.8,1V19.9z M20.9,18.7h-1.5v0.8
					c0,0.3,0,0.6,0.3,0.6c0.3,0,0.3-0.2,0.3-0.6v-0.3h0.8v0.3c0,0.8-0.3,1.3-1.2,1.3c-0.7,0-1.1-0.5-1.1-1.3v-1.9
					c0-0.7,0.5-1.2,1.2-1.2c0.7,0,1.1,0.5,1.1,1.2V18.7z"/>
			</g>
			<g>
				<path class="st55" d="M19.8,17.2c-0.3,0-0.3,0.2-0.3,0.5v0.4h0.7v-0.4C20.1,17.4,20,17.2,19.8,17.2z"/>
			</g>
			<g>
				<path class="st55" d="M16.8,17.2c-0.1,0-0.1,0.1-0.2,0.1v2.6c0.1,0.1,0.1,0.1,0.2,0.1c0.1,0.1,0.3,0.1,0.4,0
					c0-0.1,0.1-0.2,0.1-0.3v-2.1c0-0.1,0-0.2-0.1-0.3C17.1,17.2,16.9,17.1,16.8,17.2z"/>
			</g>
		</g>
	</g>
</g>
</svg>
