<svg xmlns="http://www.w3.org/2000/svg" xmlns:xlink="http://www.w3.org/1999/xlink" version="1.1" x="0px" y="0px" viewBox="0 0 64 80" enable-background="new 0 0 64 64" xml:space="preserve"><g><path fill="#000000" d="M61.581,46.015l-23.61-8.821c-0.904-0.338-1.685-0.94-2.241-1.728L28.549,25.3   c1.233-1.341,2.119-3.03,2.478-4.95c1.02-5.458-2.59-10.728-8.048-11.748c-5.458-1.02-10.728,2.59-11.748,8.048   s2.59,10.728,8.048,11.748c1.043,0.195,2.078,0.22,3.079,0.096l7.766,15.169c0.724,1.415,2.059,2.418,3.62,2.719l25.735,4.973   c1.625,0.314,3.195-0.754,3.499-2.381l0.068-0.366C63.253,47.503,62.635,46.408,61.581,46.015z M14.592,17.278   c0.674-3.604,4.154-5.988,7.758-5.314s5.988,4.154,5.314,7.758c-0.674,3.604-4.154,5.988-7.758,5.314   C16.303,24.363,13.919,20.882,14.592,17.278z"/><path fill="#000000" d="M58.317,20.963l-0.277-0.246c-0.613-0.553-1.455-0.721-2.207-0.496c-0.274,0.081-0.534,0.211-0.769,0.397   L38.285,33.81c0.197,0.241,0.455,0.426,0.749,0.535l8.342,3.116L58.532,25.19C59.644,23.967,59.548,22.07,58.317,20.963z    M27.419,45.048l-2.681-5.238l-4.749,1.205c-0.81-1.632-2.071-3.065-3.732-4.088c-0.218-0.135-0.442-0.261-0.665-0.375   c-3.579-1.845-7.839-1.337-10.874,1.067c-0.895,0.71-1.684,1.583-2.315,2.609c-0.754,1.23-1.216,2.563-1.396,3.908   c-0.522,3.832,1.199,7.793,4.698,9.945c4.729,2.908,10.943,1.428,13.853-3.301c0.554-0.905,0.95-1.862,1.192-2.84l8.125-0.869   C28.296,46.483,27.805,45.804,27.419,45.048z M16.786,48.744c-0.047,0.083-0.095,0.163-0.143,0.244   c-1.922,3.123-6.024,4.101-9.147,2.179c-0.613-0.378-1.143-0.838-1.582-1.356c-1.405-1.654-1.919-3.918-1.36-6.021   c0.163-0.61,0.415-1.206,0.763-1.768c1.92-3.125,6.024-4.103,9.145-2.181c1.111,0.682,1.951,1.641,2.485,2.734   C17.876,44.476,17.882,46.781,16.786,48.744z"/></g><text x="0" y="79" fill="#000000" font-size="5px" font-weight="bold" font-family="'Helvetica Neue', Helvetica, Arial-Unicode, Arial, Sans-serif">Created by Delwar Hossain</text><text x="0" y="84" fill="#000000" font-size="5px" font-weight="bold" font-family="'Helvetica Neue', Helvetica, Arial-Unicode, Arial, Sans-serif">from the Noun Project</text></svg>