<?xml version="1.0" encoding="utf-8"?>
<!-- Generator: Adobe Illustrator 21.0.2, SVG Export Plug-In . SVG Version: 6.00 Build 0)  -->
<svg version="1.1" id="Layer_1" xmlns="http://www.w3.org/2000/svg" xmlns:xlink="http://www.w3.org/1999/xlink" x="0px" y="0px"
	 viewBox="0 0 531 590" style="enable-background:new 0 0 531 590;" xml:space="preserve">
<style type="text/css">
	.st0{clip-path:url(#SVGID_2_);}
	.st1{fill:url(#SVGID_3_);}
	.st2{clip-path:url(#SVGID_5_);}
	.st3{fill:url(#SVGID_6_);}
	.st4{clip-path:url(#SVGID_8_);}
	.st5{fill:url(#SVGID_9_);}
	.st6{clip-path:url(#SVGID_11_);}
	.st7{fill:url(#SVGID_12_);}
	.st8{clip-path:url(#SVGID_14_);}
	.st9{fill:url(#SVGID_15_);}
	.st10{clip-path:url(#SVGID_17_);}
	.st11{fill:url(#SVGID_18_);}
	.st12{clip-path:url(#SVGID_20_);}
	.st13{fill:url(#SVGID_21_);}
	.st14{clip-path:url(#SVGID_23_);}
	.st15{fill:url(#SVGID_24_);}
	.st16{clip-path:url(#SVGID_26_);}
	.st17{fill:url(#SVGID_27_);}
	.st18{clip-path:url(#SVGID_29_);}
	.st19{fill:url(#SVGID_30_);}
	.st20{clip-path:url(#SVGID_32_);}
	.st21{fill:url(#SVGID_33_);}
	.st22{clip-path:url(#SVGID_35_);}
	.st23{fill:url(#SVGID_36_);}
	.st24{clip-path:url(#SVGID_38_);}
	.st25{fill:url(#SVGID_39_);}
	.st26{clip-path:url(#SVGID_41_);}
	.st27{fill:url(#SVGID_42_);}
	.st28{fill:none;stroke:#A0A0A0;stroke-width:17;stroke-miterlimit:10;}
	.st29{fill:none;stroke:#A0A0A0;stroke-width:17;stroke-miterlimit:10;stroke-dasharray:0.4996,3.9965;}
	.st30{fill:none;stroke:url(#SVGID_43_);stroke-width:5;stroke-miterlimit:10;}
	.st31{fill:url(#SVGID_44_);}
	.st32{fill:url(#SVGID_45_);}
	.st33{fill:none;stroke:url(#SVGID_46_);stroke-width:9;stroke-miterlimit:10;}
	.st34{fill:none;stroke:url(#SVGID_47_);stroke-width:9;stroke-miterlimit:10;}
	.st35{fill:#231F20;}
	.st36{fill:none;stroke:url(#SVGID_48_);stroke-width:9;stroke-miterlimit:10;}
	.st37{clip-path:url(#SVGID_50_);}
	.st38{fill:url(#SVGID_51_);}
	.st39{clip-path:url(#SVGID_53_);}
	.st40{fill:url(#SVGID_54_);}
	.st41{clip-path:url(#SVGID_56_);}
	.st42{fill:url(#SVGID_57_);}
	.st43{clip-path:url(#SVGID_59_);}
	.st44{fill:url(#SVGID_60_);}
	.st45{clip-path:url(#SVGID_62_);}
	.st46{fill:url(#SVGID_63_);}
	.st47{clip-path:url(#SVGID_65_);}
	.st48{fill:url(#SVGID_66_);}
	.st49{clip-path:url(#SVGID_68_);}
	.st50{fill:url(#SVGID_69_);}
	.st51{clip-path:url(#SVGID_71_);}
	.st52{fill:url(#SVGID_72_);}
	.st53{fill:url(#SVGID_73_);}
	.st54{fill:url(#SVGID_74_);}
	.st55{fill:#EFEBE3;}
	.st56{fill:url(#SVGID_75_);}
	.st57{fill:url(#SVGID_76_);}
	.st58{fill:url(#SVGID_77_);}
	.st59{fill:url(#SVGID_78_);}
	.st60{clip-path:url(#SVGID_80_);}
	.st61{fill:url(#SVGID_81_);}
	.st62{clip-path:url(#SVGID_83_);}
	.st63{fill:url(#SVGID_84_);}
	.st64{clip-path:url(#SVGID_86_);}
	.st65{fill:url(#SVGID_87_);}
	.st66{clip-path:url(#SVGID_89_);}
	.st67{fill:url(#SVGID_90_);}
	.st68{clip-path:url(#SVGID_92_);}
	.st69{fill:url(#SVGID_93_);}
	.st70{clip-path:url(#SVGID_95_);}
	.st71{fill:url(#SVGID_96_);}
	.st72{clip-path:url(#SVGID_98_);}
	.st73{fill:url(#SVGID_99_);}
</style>
<g>
	<defs>
		<path id="SVGID_16_" d="M178.1,466.3c-11.6,25.7,19.7,46.6,39.4,55.2c33.9,14.6,73,20.8,109.4,24.3c87,8.1,157.6,22.3,162.9,1.5
			s-61.5-47.4-143.9-76.5c-30.2-10.9-61.2-19.7-92.7-26.3c-7.1-1.5-14.2-2.4-21.4-2.7c-21.3-1-44.1,3.7-53.7,24.3L178.1,466.3z"/>
	</defs>
	<clipPath id="SVGID_2_">
		<use xlink:href="#SVGID_16_"  style="overflow:visible;"/>
	</clipPath>
	<g class="st0">
		
			<linearGradient id="SVGID_3_" gradientUnits="userSpaceOnUse" x1="-717.6252" y1="414.922" x2="-714.8026" y2="414.922" gradientTransform="matrix(94.9896 -9.8667 -10.6896 -93.8177 72815.0703 32372.4746)">
			<stop  offset="0" style="stop-color:#F9E29E"/>
			<stop  offset="6.000000e-02" style="stop-color:#F9E094"/>
			<stop  offset="0.17" style="stop-color:#FADB7A"/>
			<stop  offset="0.31" style="stop-color:#FBD250"/>
			<stop  offset="0.48" style="stop-color:#FDC716"/>
			<stop  offset="0.5" style="stop-color:#FDC50D"/>
			<stop  offset="1" style="stop-color:#F4A81C"/>
		</linearGradient>
		<polygon class="st1" points="182.4,661 513.4,626.6 483.7,366 152.8,400.4 		"/>
	</g>
</g>
<g>
	<defs>
		<path id="SVGID_19_" d="M319.6,480.4c33.6,24,69.9,45,105.4,65.8c9.3,5.4,34.5,23.4,44.6,11.2c11.4-13.7-29.2-57.3-80.6-108.5
			c-12.1-12-24.5-23.6-37.4-34.6c-8.5-7.3-22.6-19.3-37.6-27.8c-19-10.6-39.5-15.6-52.3,2.4c-2.1,3-3.7,6.3-4.7,9.8
			C248.6,430.5,299.6,466.2,319.6,480.4"/>
	</defs>
	<clipPath id="SVGID_5_">
		<use xlink:href="#SVGID_19_"  style="overflow:visible;"/>
	</clipPath>
	<g class="st2">
		
			<linearGradient id="SVGID_6_" gradientUnits="userSpaceOnUse" x1="-719.0023" y1="419.8043" x2="-716.6619" y2="419.8043" gradientTransform="matrix(90.065 31.7363 30.4941 -89.3597 52224.7266 60767.5039)">
			<stop  offset="0" style="stop-color:#CF74A9"/>
			<stop  offset="0.26" style="stop-color:#C84B97"/>
			<stop  offset="0.5" style="stop-color:#C02184"/>
			<stop  offset="1" style="stop-color:#962B87"/>
		</linearGradient>
		<polygon class="st3" points="218.4,504.9 466.6,592.3 519.8,436.3 271.7,348.9 		"/>
	</g>
</g>
<g>
	<defs>
		<path id="SVGID_22_" d="M241.4,203c-26.1-20.4-54.6,45.8-61.2,61.8c-17.3,42.3-35.1,75.4-25.7,81.4s32.8-23,59.8-59.5
			c7.4-9.9,25.4-32.1,32.3-52.2c3.1-9.1,4-17.7,0.5-24.6C245.7,207.2,243.7,204.9,241.4,203"/>
	</defs>
	<clipPath id="SVGID_8_">
		<use xlink:href="#SVGID_22_"  style="overflow:visible;"/>
	</clipPath>
	<g class="st4">
		
			<linearGradient id="SVGID_9_" gradientUnits="userSpaceOnUse" x1="-726.235" y1="414.2198" x2="-724.3458" y2="414.2198" gradientTransform="matrix(-14.8911 73.7721 73.7721 14.8911 -41169.1367 47617.1875)">
			<stop  offset="0" style="stop-color:#CFE0A2"/>
			<stop  offset="0.5" style="stop-color:#A8CD7A"/>
			<stop  offset="1" style="stop-color:#76B342"/>
		</linearGradient>
		<polygon class="st5" points="115.8,151.5 305,190.7 267.6,381.1 78.4,341.9 		"/>
	</g>
</g>
<g>
	<defs>
		<path id="SVGID_25_" d="M489.3,268.4c3.3-10.6-9.9-17.3-18-19.8c-13.9-4.1-29.6-4.7-44-4.4c-34.4,0.9-62.8-1.3-63.9,7
			c-1.1,8.4,26.3,15.7,59.9,23.2c12.3,2.9,24.9,4.9,37.5,6c2.8,0.2,5.7,0.3,8.5,0.1C477.7,279.9,486.4,277,489.3,268.4L489.3,268.4z
			"/>
	</defs>
	<clipPath id="SVGID_11_">
		<use xlink:href="#SVGID_25_"  style="overflow:visible;"/>
	</clipPath>
	<g class="st6">
		
			<linearGradient id="SVGID_12_" gradientUnits="userSpaceOnUse" x1="-731.994" y1="409.0492" x2="-730.8808" y2="409.0492" gradientTransform="matrix(-93.1468 21.0726 21.7506 91.8855 -76607.0703 -21914.0566)">
			<stop  offset="0" style="stop-color:#F9E29E"/>
			<stop  offset="6.000000e-02" style="stop-color:#F9E094"/>
			<stop  offset="0.17" style="stop-color:#FADB7A"/>
			<stop  offset="0.31" style="stop-color:#FBD250"/>
			<stop  offset="0.48" style="stop-color:#FDC716"/>
			<stop  offset="0.5" style="stop-color:#FDC50D"/>
			<stop  offset="1" style="stop-color:#F4A81C"/>
		</linearGradient>
		<polygon class="st7" points="478.5,192.3 350.5,221.3 374.3,321.9 502.3,293 		"/>
	</g>
</g>
<g>
	<defs>
		<path id="SVGID_28_" d="M263.3,574.4c3.3-10.9-9.9-17.8-18-20.3c-13.9-4.3-29.6-4.9-44-4.5c-34.4,0.9-62.8-1.4-63.9,7.2
			c-1.1,8.6,26.3,16.1,59.9,23.9c12.3,3,24.9,5,37.5,6.1c2.8,0.3,5.7,0.3,8.5,0.1C251.7,586.3,260.4,583.3,263.3,574.4L263.3,574.4z
			"/>
	</defs>
	<clipPath id="SVGID_14_">
		<use xlink:href="#SVGID_28_"  style="overflow:visible;"/>
	</clipPath>
	<g class="st8">
		
			<linearGradient id="SVGID_15_" gradientUnits="userSpaceOnUse" x1="-728.9567" y1="411.6793" x2="-727.8365" y2="411.6793" gradientTransform="matrix(-93.1468 21.0726 21.7506 91.8855 -76607.0703 -21914.0566)">
			<stop  offset="0" style="stop-color:#F9E29E"/>
			<stop  offset="6.000000e-02" style="stop-color:#F9E094"/>
			<stop  offset="0.17" style="stop-color:#FADB7A"/>
			<stop  offset="0.31" style="stop-color:#FBD250"/>
			<stop  offset="0.48" style="stop-color:#FDC716"/>
			<stop  offset="0.5" style="stop-color:#FDC50D"/>
			<stop  offset="1" style="stop-color:#F4A81C"/>
		</linearGradient>
		<polygon class="st9" points="252.5,496.3 124.5,526 148.3,629.5 276.3,599.7 		"/>
	</g>
</g>
<g>
	<defs>
		<path id="SVGID_31_" d="M276.5,137c-23-15.8-55.2,28-66.9,42.3c-15.5,18.9-29.2,39.4-43,59.6c-3.9,5.7-28,33.9-19.6,42.1
			c8.1,7.9,40.7-20,79.2-55.5c10.4-9.6,20.5-19.6,30.1-30c6.1-6.7,13.1-13.7,18.3-21.7c2.2-3.3,4-7,5.3-10.8
			c2.5-7.5,4.5-19.5-2.4-25.3C277.2,137.5,276.9,137.2,276.5,137"/>
	</defs>
	<clipPath id="SVGID_17_">
		<use xlink:href="#SVGID_31_"  style="overflow:visible;"/>
	</clipPath>
	<g class="st10">
		
			<linearGradient id="SVGID_18_" gradientUnits="userSpaceOnUse" x1="-719.0026" y1="417.7865" x2="-717.5684" y2="417.7865" gradientTransform="matrix(-48.4577 101.6636 95.1794 35.1242 -74359.6719 58564.3516)">
			<stop  offset="0" style="stop-color:#35BEED"/>
			<stop  offset="0.5" style="stop-color:#31A7DF"/>
			<stop  offset="1" style="stop-color:#2190CE"/>
		</linearGradient>
		<polygon class="st11" points="211.3,102.2 126.1,285.7 215.7,319.7 300.9,136.2 		"/>
	</g>
</g>
<g>
	<defs>
		<path id="SVGID_34_" d="M158.3,424.9c-14.6,38.6-25.6,79.1-36.6,118.7c-2.8,10.4-13.8,39.3,0.6,45.9
			c16.1,7.5,47.9-42.9,84.3-105.7c8.5-14.7,16.5-29.7,23.9-45c4.8-10.1,12.9-26.7,17.2-43.5c5.4-21.1,4.9-42.1-15.7-49.9
			c-3.4-1.3-7-2-10.7-2C188.3,343.5,166.9,402,158.3,424.9"/>
	</defs>
	<clipPath id="SVGID_20_">
		<use xlink:href="#SVGID_34_"  style="overflow:visible;"/>
	</clipPath>
	<g class="st12">
		
			<linearGradient id="SVGID_21_" gradientUnits="userSpaceOnUse" x1="-725.1122" y1="418.074" x2="-722.7719" y2="418.074" gradientTransform="matrix(-7.6 95.19 94.19 6.58 -44700.4258 66637.3203)">
			<stop  offset="0" style="stop-color:#CF74A9"/>
			<stop  offset="0.26" style="stop-color:#C84B97"/>
			<stop  offset="0.5" style="stop-color:#C02184"/>
			<stop  offset="1" style="stop-color:#962B87"/>
		</linearGradient>
		<polygon class="st13" points="108.6,333.4 87.7,595.6 252.2,607.1 273.1,344.9 		"/>
	</g>
</g>
<g>
	<defs>
		<path id="SVGID_37_" d="M135.4,40.1C110,57.6-18.5,127.2,2.3,168.9c12.8,25.5,82.3,5,165-24.4c46.4-16.4,136.1-69.1,136.1-69.1
			c-15.7-47.4-46.3-66.7-81.4-66.7C194.2,8.6,163.7,20.6,135.4,40.1"/>
	</defs>
	<clipPath id="SVGID_23_">
		<use xlink:href="#SVGID_37_"  style="overflow:visible;"/>
	</clipPath>
	<g class="st14">
		
			<linearGradient id="SVGID_24_" gradientUnits="userSpaceOnUse" x1="-731.5262" y1="414.8092" x2="-727.8022" y2="414.8092" gradientTransform="matrix(-43.55 56.82 59 64.7 -56111.6875 14727.4307)">
			<stop  offset="0" style="stop-color:#F29054"/>
			<stop  offset="0.5" style="stop-color:#EE7724"/>
			<stop  offset="1" style="stop-color:#D06329"/>
		</linearGradient>
		<polygon class="st15" points="128.5,-183.2 -95.8,109.5 156.4,386.1 380.8,93.4 		"/>
	</g>
</g>
<g>
	<defs>
		<path id="SVGID_40_" d="M529.7,265.5c-15.8-51.1-114.7,7.3-138,21.7c-61.9,38.1-116,64-109.1,80.6c6.9,16.6,64.6,1.3,134-20
			c18.9-5.8,63.3-17.3,90.9-36.6c12.5-8.7,21.6-19.1,23.4-31.3c0.6-4.8,0.2-9.6-1.3-14.2"/>
	</defs>
	<clipPath id="SVGID_26_">
		<use xlink:href="#SVGID_40_"  style="overflow:visible;"/>
	</clipPath>
	<g class="st16">
		
			<linearGradient id="SVGID_27_" gradientUnits="userSpaceOnUse" x1="-733.8356" y1="412.1136" x2="-730.853" y2="412.1136" gradientTransform="matrix(-55.0252 51.3449 51.3449 55.0252 -61066.8945 15239.6611)">
			<stop  offset="0" style="stop-color:#CFE0A2"/>
			<stop  offset="0.5" style="stop-color:#A8CD7A"/>
			<stop  offset="1" style="stop-color:#76B342"/>
		</linearGradient>
		<polygon class="st17" points="410.9,80 625.4,309.9 400.2,520 185.7,290.1 		"/>
	</g>
</g>
</svg>
