<?xml version="1.0" encoding="utf-8"?>
<!-- Generator: Adobe Illustrator 21.0.2, SVG Export Plug-In . SVG Version: 6.00 Build 0)  -->
<svg version="1.1" id="Layer_1" xmlns="http://www.w3.org/2000/svg" xmlns:xlink="http://www.w3.org/1999/xlink" x="0px" y="0px"
	 viewBox="0 0 197 161" style="enable-background:new 0 0 197 161;" xml:space="preserve">
<style type="text/css">
	.st0{clip-path:url(#SVGID_2_);}
	.st1{fill:url(#SVGID_3_);}
	.st2{clip-path:url(#SVGID_5_);}
	.st3{fill:url(#SVGID_6_);}
	.st4{clip-path:url(#SVGID_8_);}
	.st5{fill:url(#SVGID_9_);}
	.st6{clip-path:url(#SVGID_11_);}
	.st7{fill:url(#SVGID_12_);}
	.st8{clip-path:url(#SVGID_14_);}
	.st9{fill:url(#SVGID_15_);}
	.st10{clip-path:url(#SVGID_17_);}
	.st11{fill:url(#SVGID_18_);}
	.st12{clip-path:url(#SVGID_20_);}
	.st13{fill:url(#SVGID_21_);}
	.st14{clip-path:url(#SVGID_23_);}
	.st15{fill:url(#SVGID_24_);}
	.st16{clip-path:url(#SVGID_26_);}
	.st17{fill:url(#SVGID_27_);}
	.st18{clip-path:url(#SVGID_29_);}
	.st19{fill:url(#SVGID_30_);}
	.st20{clip-path:url(#SVGID_32_);}
	.st21{fill:url(#SVGID_33_);}
	.st22{clip-path:url(#SVGID_35_);}
	.st23{fill:url(#SVGID_36_);}
	.st24{clip-path:url(#SVGID_38_);}
	.st25{fill:url(#SVGID_39_);}
	.st26{clip-path:url(#SVGID_41_);}
	.st27{fill:url(#SVGID_42_);}
	.st28{fill:none;stroke:#A0A0A0;stroke-width:17;stroke-miterlimit:10;}
	.st29{fill:none;stroke:#A0A0A0;stroke-width:17;stroke-miterlimit:10;stroke-dasharray:0.4996,3.9965;}
	.st30{fill:none;stroke:url(#SVGID_43_);stroke-width:5;stroke-miterlimit:10;}
	.st31{fill:url(#SVGID_44_);}
	.st32{fill:url(#SVGID_45_);}
	.st33{fill:none;stroke:url(#SVGID_46_);stroke-width:9;stroke-miterlimit:10;}
	.st34{fill:none;stroke:url(#SVGID_47_);stroke-width:9;stroke-miterlimit:10;}
	.st35{fill:#231F20;}
	.st36{fill:none;stroke:url(#SVGID_48_);stroke-width:9;stroke-miterlimit:10;}
	.st37{clip-path:url(#SVGID_50_);}
	.st38{fill:url(#SVGID_51_);}
	.st39{clip-path:url(#SVGID_53_);}
	.st40{fill:url(#SVGID_54_);}
	.st41{clip-path:url(#SVGID_56_);}
	.st42{fill:url(#SVGID_57_);}
	.st43{clip-path:url(#SVGID_59_);}
	.st44{fill:url(#SVGID_60_);}
	.st45{clip-path:url(#SVGID_62_);}
	.st46{fill:url(#SVGID_63_);}
	.st47{clip-path:url(#SVGID_65_);}
	.st48{fill:url(#SVGID_66_);}
	.st49{clip-path:url(#SVGID_68_);}
	.st50{fill:url(#SVGID_69_);}
	.st51{clip-path:url(#SVGID_71_);}
	.st52{fill:url(#SVGID_72_);}
	.st53{fill:url(#SVGID_73_);}
	.st54{fill:url(#SVGID_74_);}
	.st55{fill:#EFEBE3;}
	.st56{fill:url(#SVGID_75_);}
	.st57{fill:url(#SVGID_76_);}
	.st58{fill:url(#SVGID_77_);}
	.st59{fill:url(#SVGID_78_);}
	.st60{clip-path:url(#SVGID_80_);}
	.st61{fill:url(#SVGID_81_);}
	.st62{clip-path:url(#SVGID_83_);}
	.st63{fill:url(#SVGID_84_);}
	.st64{clip-path:url(#SVGID_86_);}
	.st65{fill:url(#SVGID_87_);}
	.st66{clip-path:url(#SVGID_89_);}
	.st67{fill:url(#SVGID_90_);}
	.st68{clip-path:url(#SVGID_92_);}
	.st69{fill:url(#SVGID_93_);}
	.st70{clip-path:url(#SVGID_95_);}
	.st71{fill:url(#SVGID_96_);}
	.st72{clip-path:url(#SVGID_98_);}
	.st73{fill:url(#SVGID_99_);}
</style>
<g>
	<defs>
		<path id="SVGID_55_" d="M-62.9-12.1c-25.8-11.4-46.4,20-55,39.8c-14.4,34-20.3,73.1-23.5,109.6c-7.5,87-21.1,157.8-0.4,162.9
			c20.7,5.2,47-61.8,75.5-144.4c10.7-30.3,19.3-61.3,25.7-92.8c1.4-7.1,2.3-14.2,2.6-21.4c0.9-21.3-4-44.1-24.7-53.6L-62.9-12.1z"/>
	</defs>
	<clipPath id="SVGID_2_">
		<use xlink:href="#SVGID_55_"  style="overflow:visible;"/>
	</clipPath>
	<g class="st0">
		
			<linearGradient id="SVGID_3_" gradientUnits="userSpaceOnUse" x1="-2798.9934" y1="-219.1051" x2="-2796.1709" y2="-219.1051" gradientTransform="matrix(10.5335 94.918 93.7404 -11.3482 49899.7031 263211.3438)">
			<stop  offset="0" style="stop-color:#F9E29E"/>
			<stop  offset="6.000000e-02" style="stop-color:#F9E094"/>
			<stop  offset="0.17" style="stop-color:#FADB7A"/>
			<stop  offset="0.31" style="stop-color:#FBD250"/>
			<stop  offset="0.48" style="stop-color:#FDC716"/>
			<stop  offset="0.5" style="stop-color:#FDC50D"/>
			<stop  offset="1" style="stop-color:#F4A81C"/>
		</linearGradient>
		<polygon class="st1" points="-257.6,-6.5 -220.9,324.2 39.5,292.7 2.8,-38 		"/>
	</g>
</g>
<g>
	<defs>
		<path id="SVGID_58_" d="M-109.6,210c-25.2-22.8-132.5-143-171.9-110.1c-24.1,20.2,15.5,89.5,68.1,170.8
			c29.4,45.6,108.7,128.4,108.7,128.4c46.9-28.9,59.8-66.6,50.9-104.3C-60.9,265.1-81.4,235.5-109.6,210"/>
	</defs>
	<clipPath id="SVGID_5_">
		<use xlink:href="#SVGID_58_"  style="overflow:visible;"/>
	</clipPath>
	<g class="st2">
		
			<linearGradient id="SVGID_6_" gradientUnits="userSpaceOnUse" x1="-2816.0583" y1="-240.2418" x2="-2811.9539" y2="-240.2418" gradientTransform="matrix(-65.3243 -29.2892 -49.3681 72.3179 -195862.625 -64815.5156)">
			<stop  offset="0" style="stop-color:#F29054"/>
			<stop  offset="0.5" style="stop-color:#EE7724"/>
			<stop  offset="1" style="stop-color:#D06329"/>
		</linearGradient>
		<polygon class="st3" points="128.1,145.9 -242.7,-20.4 -475.3,320.4 -104.5,486.7 		"/>
	</g>
</g>
<g>
	<defs>
		<path id="SVGID_79_" d="M173.7,45.3c-20-21.3-63.2,14.8-78.6,26.3C74.8,86.9,56,104,37.1,120.9c-5.3,4.7-36.7,27.1-30,37.4
			c6.5,9.8,46.5-10.3,94.3-36.6c12.9-7.1,25.6-14.7,37.9-22.9c7.8-5.2,16.7-10.6,23.8-17.3c3.1-2.8,5.7-6,8-9.5
			c4.3-6.9,9.1-18.4,3.5-25.9c-0.3-0.3-0.5-0.7-0.8-1"/>
	</defs>
	<clipPath id="SVGID_8_">
		<use xlink:href="#SVGID_79_"  style="overflow:visible;"/>
	</clipPath>
	<g class="st4">
		
			<linearGradient id="SVGID_9_" gradientUnits="userSpaceOnUse" x1="-2804.3386" y1="-238.4249" x2="-2802.8665" y2="-238.4249" gradientTransform="matrix(-70.2443 88.0305 84.738 55.788 -176644.8125 260211.9375)">
			<stop  offset="0" style="stop-color:#35BEED"/>
			<stop  offset="0.5" style="stop-color:#31A7DF"/>
			<stop  offset="1" style="stop-color:#2190CE"/>
		</linearGradient>
		<polygon class="st5" points="114.7,-5.1 -15.4,158.1 68.7,213.5 198.9,50.3 		"/>
	</g>
</g>
<g>
	<defs>
		<path id="SVGID_82_" d="M121.1,3.5C96.4-15.3,69.4,45.8,63.2,60.4c-16.4,38.9-33.2,69.4-24.3,74.9c8.9,5.5,31-21.2,56.6-54.8
			c7-9.1,24-29.6,30.6-48c3-8.4,3.8-16.3,0.5-22.7C125.2,7.4,123.4,5.3,121.1,3.5"/>
	</defs>
	<clipPath id="SVGID_11_">
		<use xlink:href="#SVGID_82_"  style="overflow:visible;"/>
	</clipPath>
	<g class="st6">
		
			<linearGradient id="SVGID_12_" gradientUnits="userSpaceOnUse" x1="-2805.4758" y1="-213.0384" x2="-2803.7432" y2="-213.0384" gradientTransform="matrix(-14.8911 73.7721 73.7721 14.8911 -25975.6055 210147.9375)">
			<stop  offset="0" style="stop-color:#CFE0A2"/>
			<stop  offset="0.5" style="stop-color:#A8CD7A"/>
			<stop  offset="1" style="stop-color:#76B342"/>
		</linearGradient>
		<polygon class="st7" points="2.3,-44 181.4,-7.8 146,167.6 -33.1,131.4 		"/>
	</g>
</g>
<g>
	<defs>
		<path id="SVGID_85_" d="M114,59.3C94.5,60.8,1.8,57.6-0.2,87.1c-1.2,18.1,43.5,29.1,98.2,39.6c30.7,5.9,96.7,5.8,96.7,5.8
			c6.6-31-3.9-51.4-23.2-62.7C156.3,61,135.8,57.7,114,59.3"/>
	</defs>
	<clipPath id="SVGID_14_">
		<use xlink:href="#SVGID_85_"  style="overflow:visible;"/>
	</clipPath>
	<g class="st8">
		
			<linearGradient id="SVGID_15_" gradientUnits="userSpaceOnUse" x1="-2828.8359" y1="-219.7225" x2="-2826.4719" y2="-219.7225" gradientTransform="matrix(-66.3039 26.9983 18.1841 85.653 -183394.2969 95258.1797)">
			<stop  offset="0" style="stop-color:#F29054"/>
			<stop  offset="0.5" style="stop-color:#EE7724"/>
			<stop  offset="1" style="stop-color:#D06329"/>
		</linearGradient>
		<polygon class="st9" points="181.9,-65.2 -34.9,23.1 14.4,255.6 231.3,167.3 		"/>
	</g>
</g>
<g>
	<defs>
		<path id="SVGID_88_" d="M72,94.4c18.1,15.8,38,30,57.5,44.1c5.1,3.7,18.7,15.5,25.2,9c7.4-7.3-13.7-34.9-40.6-67.5
			c-6.3-7.6-12.9-15.1-19.8-22.2c-4.5-4.7-12-12.5-20.3-18.2c-10.4-7.2-22-11.2-30.5-1.6c-1.4,1.6-2.5,3.4-3.3,5.4
			C33.6,61.5,61.2,85.1,72,94.4"/>
	</defs>
	<clipPath id="SVGID_17_">
		<use xlink:href="#SVGID_88_"  style="overflow:visible;"/>
	</clipPath>
	<g class="st10">
		
			<linearGradient id="SVGID_18_" gradientUnits="userSpaceOnUse" x1="-2775.9622" y1="-229.3965" x2="-2774.5979" y2="-229.3965" gradientTransform="matrix(86.5837 40.276 38.9716 -86.0016 249338.4375 92141.6563)">
			<stop  offset="0" style="stop-color:#CF74A9"/>
			<stop  offset="0.26" style="stop-color:#C84B97"/>
			<stop  offset="0.5" style="stop-color:#C02184"/>
			<stop  offset="1" style="stop-color:#962B87"/>
		</linearGradient>
		<polygon class="st11" points="11.9,103 150.9,167.6 190.6,80.1 51.5,15.4 		"/>
	</g>
</g>
<g>
	<defs>
		<path id="SVGID_94_" d="M114.7,280.1c-19.5,1.4-112.3-1.7-114.3,27.8C-0.8,326,43.8,337,98.6,347.5c30.7,5.9,96.7,5.8,96.7,5.8
			c6.6-31-3.9-51.4-23.2-62.7C157,281.8,136.4,278.5,114.7,280.1"/>
	</defs>
	<clipPath id="SVGID_20_">
		<use xlink:href="#SVGID_94_"  style="overflow:visible;"/>
	</clipPath>
	<g class="st12">
		
			<linearGradient id="SVGID_21_" gradientUnits="userSpaceOnUse" x1="-2828.1941" y1="-217.3471" x2="-2825.8298" y2="-217.3471" gradientTransform="matrix(-66.3039 26.9983 18.1841 85.653 -183394.2969 95258.1797)">
			<stop  offset="0" style="stop-color:#F29054"/>
			<stop  offset="0.5" style="stop-color:#EE7724"/>
			<stop  offset="1" style="stop-color:#D06329"/>
		</linearGradient>
		<polygon class="st13" points="182.5,155.6 -34.3,243.9 15.1,476.4 231.9,388.1 		"/>
	</g>
</g>
</svg>
