<?xml version="1.0" encoding="utf-8"?>
<!-- Generator: Adobe Illustrator 21.0.2, SVG Export Plug-In . SVG Version: 6.00 Build 0)  -->
<svg version="1.1" id="Layer_1" xmlns="http://www.w3.org/2000/svg" xmlns:xlink="http://www.w3.org/1999/xlink" x="0px" y="0px"
	 viewBox="0 0 256 546" style="enable-background:new 0 0 256 546;" xml:space="preserve">
<style type="text/css">
	.st0{clip-path:url(#SVGID_2_);}
	.st1{fill:url(#SVGID_3_);}
	.st2{clip-path:url(#SVGID_5_);}
	.st3{fill:url(#SVGID_6_);}
	.st4{clip-path:url(#SVGID_8_);}
	.st5{fill:url(#SVGID_9_);}
	.st6{clip-path:url(#SVGID_11_);}
	.st7{fill:url(#SVGID_12_);}
	.st8{clip-path:url(#SVGID_14_);}
	.st9{fill:url(#SVGID_15_);}
	.st10{clip-path:url(#SVGID_17_);}
	.st11{fill:url(#SVGID_18_);}
	.st12{clip-path:url(#SVGID_20_);}
	.st13{fill:url(#SVGID_21_);}
	.st14{clip-path:url(#SVGID_23_);}
	.st15{fill:url(#SVGID_24_);}
	.st16{clip-path:url(#SVGID_26_);}
	.st17{fill:url(#SVGID_27_);}
	.st18{clip-path:url(#SVGID_29_);}
	.st19{fill:url(#SVGID_30_);}
	.st20{clip-path:url(#SVGID_32_);}
	.st21{fill:url(#SVGID_33_);}
	.st22{clip-path:url(#SVGID_35_);}
	.st23{fill:url(#SVGID_36_);}
	.st24{clip-path:url(#SVGID_38_);}
	.st25{fill:url(#SVGID_39_);}
	.st26{clip-path:url(#SVGID_41_);}
	.st27{fill:url(#SVGID_42_);}
	.st28{fill:none;stroke:#A0A0A0;stroke-width:17;stroke-miterlimit:10;}
	.st29{fill:none;stroke:#A0A0A0;stroke-width:17;stroke-miterlimit:10;stroke-dasharray:0.4996,3.9965;}
	.st30{fill:none;stroke:url(#SVGID_43_);stroke-width:5;stroke-miterlimit:10;}
	.st31{fill:url(#SVGID_44_);}
	.st32{fill:url(#SVGID_45_);}
	.st33{fill:none;stroke:url(#SVGID_46_);stroke-width:9;stroke-miterlimit:10;}
	.st34{fill:none;stroke:url(#SVGID_47_);stroke-width:9;stroke-miterlimit:10;}
	.st35{fill:#231F20;}
	.st36{fill:none;stroke:url(#SVGID_48_);stroke-width:9;stroke-miterlimit:10;}
	.st37{clip-path:url(#SVGID_50_);}
	.st38{fill:url(#SVGID_51_);}
	.st39{clip-path:url(#SVGID_53_);}
	.st40{fill:url(#SVGID_54_);}
	.st41{clip-path:url(#SVGID_56_);}
	.st42{fill:url(#SVGID_57_);}
	.st43{clip-path:url(#SVGID_59_);}
	.st44{fill:url(#SVGID_60_);}
	.st45{clip-path:url(#SVGID_62_);}
	.st46{fill:url(#SVGID_63_);}
	.st47{clip-path:url(#SVGID_65_);}
	.st48{fill:url(#SVGID_66_);}
	.st49{clip-path:url(#SVGID_68_);}
	.st50{fill:url(#SVGID_69_);}
	.st51{clip-path:url(#SVGID_71_);}
	.st52{fill:url(#SVGID_72_);}
	.st53{fill:url(#SVGID_73_);}
	.st54{fill:url(#SVGID_74_);}
	.st55{fill:#EFEBE3;}
	.st56{fill:url(#SVGID_75_);}
	.st57{fill:url(#SVGID_76_);}
	.st58{fill:url(#SVGID_77_);}
	.st59{fill:url(#SVGID_78_);}
	.st60{clip-path:url(#SVGID_80_);}
	.st61{fill:url(#SVGID_81_);}
	.st62{clip-path:url(#SVGID_83_);}
	.st63{fill:url(#SVGID_84_);}
	.st64{clip-path:url(#SVGID_86_);}
	.st65{fill:url(#SVGID_87_);}
	.st66{clip-path:url(#SVGID_89_);}
	.st67{fill:url(#SVGID_90_);}
	.st68{clip-path:url(#SVGID_92_);}
	.st69{fill:url(#SVGID_93_);}
	.st70{clip-path:url(#SVGID_95_);}
	.st71{fill:url(#SVGID_96_);}
	.st72{clip-path:url(#SVGID_98_);}
	.st73{fill:url(#SVGID_99_);}
</style>
<g>
	<defs>
		<path id="SVGID_52_" d="M151.1,2.9c-25.8-11.4-46.4,20-55,39.8c-14.4,34-20.3,73.1-23.5,109.6c-7.5,87-21.1,157.8-0.4,162.9
			c20.7,5.2,47-61.8,75.5-144.4c10.7-30.3,19.3-61.3,25.7-92.8c1.4-7.1,2.3-14.2,2.6-21.4c0.9-21.3-4-44.1-24.7-53.6L151.1,2.9z"/>
	</defs>
	<clipPath id="SVGID_2_">
		<use xlink:href="#SVGID_52_"  style="overflow:visible;"/>
	</clipPath>
	<g class="st0">
		
			<linearGradient id="SVGID_3_" gradientUnits="userSpaceOnUse" x1="-2511.1067" y1="-106.7801" x2="-2508.2839" y2="-106.7801" gradientTransform="matrix(10.5335 94.918 93.7404 -11.3482 36551.8672 237175.3906)">
			<stop  offset="0" style="stop-color:#F9E29E"/>
			<stop  offset="6.000000e-02" style="stop-color:#F9E094"/>
			<stop  offset="0.17" style="stop-color:#FADB7A"/>
			<stop  offset="0.31" style="stop-color:#FBD250"/>
			<stop  offset="0.48" style="stop-color:#FDC716"/>
			<stop  offset="0.5" style="stop-color:#FDC50D"/>
			<stop  offset="1" style="stop-color:#F4A81C"/>
		</linearGradient>
		<polygon class="st1" points="-43.6,8.5 -6.9,339.2 253.5,307.7 216.8,-23 		"/>
	</g>
</g>
<g>
	<defs>
		<path id="SVGID_55_" d="M226.1,100.9c-25.8-11.4-46.4,20-55,39.8c-14.4,34-20.3,73.1-23.5,109.6c-7.5,87-21.1,157.8-0.4,162.9
			c20.7,5.2,47-61.8,75.5-144.4c10.7-30.3,19.3-61.3,25.7-92.8c1.4-7.1,2.3-14.2,2.6-21.4c0.9-21.3-4-44.1-24.7-53.6L226.1,100.9z"
			/>
	</defs>
	<clipPath id="SVGID_5_">
		<use xlink:href="#SVGID_55_"  style="overflow:visible;"/>
	</clipPath>
	<g class="st2">
		
			<linearGradient id="SVGID_6_" gradientUnits="userSpaceOnUse" x1="-2509.9934" y1="-106.1051" x2="-2507.1709" y2="-106.1051" gradientTransform="matrix(10.5335 94.918 93.7404 -11.3482 36551.8672 237175.3906)">
			<stop  offset="0" style="stop-color:#F9E29E"/>
			<stop  offset="6.000000e-02" style="stop-color:#F9E094"/>
			<stop  offset="0.17" style="stop-color:#FADB7A"/>
			<stop  offset="0.31" style="stop-color:#FBD250"/>
			<stop  offset="0.48" style="stop-color:#FDC716"/>
			<stop  offset="0.5" style="stop-color:#FDC50D"/>
			<stop  offset="1" style="stop-color:#F4A81C"/>
		</linearGradient>
		<polygon class="st3" points="31.4,106.5 68.1,437.2 328.5,405.7 291.8,75 		"/>
	</g>
</g>
<g>
	<defs>
		<path id="SVGID_58_" d="M179.4,323c-25.2-22.8-132.5-143-171.9-110.1c-24.1,20.2,15.5,89.5,68.1,170.8
			c29.4,45.6,108.7,128.4,108.7,128.4c46.9-28.9,59.8-66.6,50.9-104.3C228.1,378.1,207.6,348.5,179.4,323"/>
	</defs>
	<clipPath id="SVGID_8_">
		<use xlink:href="#SVGID_58_"  style="overflow:visible;"/>
	</clipPath>
	<g class="st4">
		
			<linearGradient id="SVGID_9_" gradientUnits="userSpaceOnUse" x1="-2527.0583" y1="-127.2418" x2="-2522.9539" y2="-127.2418" gradientTransform="matrix(-65.3243 -29.2892 -49.3681 72.3179 -171116.3125 -64409.875)">
			<stop  offset="0" style="stop-color:#F29054"/>
			<stop  offset="0.5" style="stop-color:#EE7724"/>
			<stop  offset="1" style="stop-color:#D06329"/>
		</linearGradient>
		<polygon class="st5" points="417.1,258.9 46.3,92.6 -186.3,433.4 184.5,599.7 		"/>
	</g>
</g>
<g>
	<defs>
		<path id="SVGID_61_" d="M19.3,392.7c-16,37.2,53.7,72.3,76.8,85.5c30.6,17.4,62.8,31.9,94.8,46.6c9,4.1,54.8,31.7,64.2,17.5
			c8.9-13.7-38.8-53.5-98.6-99.8c-16.2-12.5-32.8-24.4-50-35.6c-11-7.1-22.7-15.4-35.2-20.8c-5.3-2.3-10.8-4-16.5-4.9
			c-11.2-1.7-28.5-1.5-34.8,9.9c-0.3,0.5-0.6,1-0.9,1.5"/>
	</defs>
	<clipPath id="SVGID_11_">
		<use xlink:href="#SVGID_61_"  style="overflow:visible;"/>
	</clipPath>
	<g class="st6">
		
			<linearGradient id="SVGID_12_" gradientUnits="userSpaceOnUse" x1="-2494.6001" y1="-121.7043" x2="-2492.5574" y2="-121.7043" gradientTransform="matrix(108.7205 29.3854 17.4354 -99.9442 273371 61577.4453)">
			<stop  offset="0" style="stop-color:#35BEED"/>
			<stop  offset="0.5" style="stop-color:#31A7DF"/>
			<stop  offset="1" style="stop-color:#2190CE"/>
		</linearGradient>
		<polygon class="st7" points="-12.3,495.5 267.2,571.1 291.3,433.4 11.7,357.8 		"/>
	</g>
</g>
<g>
	<defs>
		<path id="SVGID_64_" d="M-200.9,222.1c26.1,31.9,55.7,61.7,84.5,91.1c7.6,7.7,27.2,31.6,40.1,22.5c14.5-10.2-13.2-63-49.4-125.8
			c-8.5-14.7-17.4-29.2-27.1-43.2c-6.3-9.3-16.7-24.5-29-36.7c-15.5-15.2-34-25.3-51.1-11.4c-2.8,2.3-5.3,5.1-7.1,8.3
			C-256.3,155.3-216.4,203.2-200.9,222.1"/>
	</defs>
	<clipPath id="SVGID_14_">
		<use xlink:href="#SVGID_64_"  style="overflow:visible;"/>
	</clipPath>
	<g class="st8">
		
			<linearGradient id="SVGID_15_" gradientUnits="userSpaceOnUse" x1="-2498.7969" y1="-114.4422" x2="-2496.4565" y2="-114.4422" gradientTransform="matrix(78.625 54.1941 52.8107 -78.2693 202274.1563 126628.3203)">
			<stop  offset="0" style="stop-color:#CF74A9"/>
			<stop  offset="0.26" style="stop-color:#C84B97"/>
			<stop  offset="0.5" style="stop-color:#C02184"/>
			<stop  offset="1" style="stop-color:#962B87"/>
		</linearGradient>
		<polygon class="st9" points="-304.9,219.3 -88.3,368.6 3.9,231.9 -212.7,82.6 		"/>
	</g>
</g>
<g>
	<defs>
		<path id="SVGID_70_" d="M-96.5-9.8c-42.5-32.4-89,72.7-99.7,97.9c-28.2,67-57.1,119.5-41.8,129s53.4-36.5,97.4-94.3
			c12-15.7,41.4-50.9,52.6-82.7c5.1-14.4,6.5-28.1,0.8-39c-2.2-4.2-5.4-7.9-9.3-10.8"/>
	</defs>
	<clipPath id="SVGID_17_">
		<use xlink:href="#SVGID_70_"  style="overflow:visible;"/>
	</clipPath>
	<g class="st10">
		
			<linearGradient id="SVGID_18_" gradientUnits="userSpaceOnUse" x1="-2516.6624" y1="-107.3002" x2="-2513.6797" y2="-107.3002" gradientTransform="matrix(-14.8911 73.7721 73.7721 14.8911 -29719.334 187258.0938)">
			<stop  offset="0" style="stop-color:#CFE0A2"/>
			<stop  offset="0.5" style="stop-color:#A8CD7A"/>
			<stop  offset="1" style="stop-color:#76B342"/>
		</linearGradient>
		<polygon class="st11" points="-301.1,-91.6 7.2,-29.4 -53.8,272.6 -362,210.4 		"/>
	</g>
</g>
<g>
	<defs>
		<path id="SVGID_82_" d="M410.1,116.5c-24.7-18.8-51.7,42.2-57.9,56.9c-16.4,38.9-33.2,69.4-24.3,74.9c8.9,5.5,31-21.2,56.6-54.8
			c7-9.1,24-29.6,30.6-48c3-8.4,3.8-16.3,0.5-22.7C414.2,120.4,412.4,118.3,410.1,116.5"/>
	</defs>
	<clipPath id="SVGID_20_">
		<use xlink:href="#SVGID_82_"  style="overflow:visible;"/>
	</clipPath>
	<g class="st12">
		
			<linearGradient id="SVGID_21_" gradientUnits="userSpaceOnUse" x1="-2516.4758" y1="-100.0384" x2="-2514.7432" y2="-100.0384" gradientTransform="matrix(-14.8911 73.7721 73.7721 14.8911 -29719.334 187258.0938)">
			<stop  offset="0" style="stop-color:#CFE0A2"/>
			<stop  offset="0.5" style="stop-color:#A8CD7A"/>
			<stop  offset="1" style="stop-color:#76B342"/>
		</linearGradient>
		<polygon class="st13" points="291.3,69 470.4,105.2 435,280.6 255.9,244.4 		"/>
	</g>
</g>
<g>
	<defs>
		<path id="SVGID_85_" d="M403,172.3c-19.5,1.4-112.3-1.7-114.3,27.8c-1.2,18.1,43.5,29.1,98.2,39.6c30.7,5.9,96.7,5.8,96.7,5.8
			c6.6-31-3.9-51.4-23.2-62.7C445.3,174,424.8,170.7,403,172.3"/>
	</defs>
	<clipPath id="SVGID_23_">
		<use xlink:href="#SVGID_85_"  style="overflow:visible;"/>
	</clipPath>
	<g class="st14">
		
			<linearGradient id="SVGID_24_" gradientUnits="userSpaceOnUse" x1="-2539.8359" y1="-106.7225" x2="-2537.4719" y2="-106.7225" gradientTransform="matrix(-66.3039 26.9983 18.1841 85.653 -165998.2656 77889.8984)">
			<stop  offset="0" style="stop-color:#F29054"/>
			<stop  offset="0.5" style="stop-color:#EE7724"/>
			<stop  offset="1" style="stop-color:#D06329"/>
		</linearGradient>
		<polygon class="st15" points="470.9,47.8 254.1,136.1 303.4,368.6 520.3,280.3 		"/>
	</g>
</g>
<g>
	<defs>
		<path id="SVGID_94_" d="M403.7,393.1c-19.5,1.4-112.3-1.7-114.3,27.8c-1.2,18.1,43.5,29.1,98.2,39.6c30.7,5.9,96.7,5.8,96.7,5.8
			c6.6-31-3.9-51.4-23.2-62.7C446,394.8,425.4,391.5,403.7,393.1"/>
	</defs>
	<clipPath id="SVGID_26_">
		<use xlink:href="#SVGID_94_"  style="overflow:visible;"/>
	</clipPath>
	<g class="st16">
		
			<linearGradient id="SVGID_27_" gradientUnits="userSpaceOnUse" x1="-2539.1941" y1="-104.3471" x2="-2536.8298" y2="-104.3471" gradientTransform="matrix(-66.3039 26.9983 18.1841 85.653 -165998.2656 77889.8984)">
			<stop  offset="0" style="stop-color:#F29054"/>
			<stop  offset="0.5" style="stop-color:#EE7724"/>
			<stop  offset="1" style="stop-color:#D06329"/>
		</linearGradient>
		<polygon class="st17" points="471.5,268.6 254.7,356.9 304.1,589.4 520.9,501.1 		"/>
	</g>
</g>
</svg>
