<?xml version="1.0" encoding="utf-8"?>
<!-- Generator: Adobe Illustrator 21.0.2, SVG Export Plug-In . SVG Version: 6.00 Build 0)  -->
<svg version="1.1" id="Layer_1" xmlns="http://www.w3.org/2000/svg" xmlns:xlink="http://www.w3.org/1999/xlink" x="0px" y="0px"
	 viewBox="0 0 210 208" style="enable-background:new 0 0 210 208;" xml:space="preserve">
<style type="text/css">
	.st0{clip-path:url(#SVGID_2_);}
	.st1{fill:url(#SVGID_3_);}
	.st2{clip-path:url(#SVGID_5_);}
	.st3{fill:url(#SVGID_6_);}
	.st4{clip-path:url(#SVGID_8_);}
	.st5{fill:url(#SVGID_9_);}
	.st6{clip-path:url(#SVGID_11_);}
	.st7{fill:url(#SVGID_12_);}
	.st8{clip-path:url(#SVGID_14_);}
	.st9{fill:url(#SVGID_15_);}
	.st10{clip-path:url(#SVGID_17_);}
	.st11{fill:url(#SVGID_18_);}
	.st12{clip-path:url(#SVGID_20_);}
	.st13{fill:url(#SVGID_21_);}
	.st14{clip-path:url(#SVGID_23_);}
	.st15{fill:url(#SVGID_24_);}
	.st16{clip-path:url(#SVGID_26_);}
	.st17{fill:url(#SVGID_27_);}
	.st18{clip-path:url(#SVGID_29_);}
	.st19{fill:url(#SVGID_30_);}
	.st20{clip-path:url(#SVGID_32_);}
	.st21{fill:url(#SVGID_33_);}
	.st22{clip-path:url(#SVGID_35_);}
	.st23{fill:url(#SVGID_36_);}
	.st24{clip-path:url(#SVGID_38_);}
	.st25{fill:url(#SVGID_39_);}
	.st26{clip-path:url(#SVGID_41_);}
	.st27{fill:url(#SVGID_42_);}
	.st28{fill:none;stroke:#A0A0A0;stroke-width:17;stroke-miterlimit:10;}
	.st29{fill:none;stroke:#A0A0A0;stroke-width:17;stroke-miterlimit:10;stroke-dasharray:0.4996,3.9965;}
	.st30{fill:none;stroke:url(#SVGID_43_);stroke-width:5;stroke-miterlimit:10;}
	.st31{fill:url(#SVGID_44_);}
	.st32{fill:url(#SVGID_45_);}
	.st33{fill:none;stroke:url(#SVGID_46_);stroke-width:9;stroke-miterlimit:10;}
	.st34{fill:none;stroke:url(#SVGID_47_);stroke-width:9;stroke-miterlimit:10;}
	.st35{fill:#231F20;}
	.st36{fill:none;stroke:url(#SVGID_48_);stroke-width:9;stroke-miterlimit:10;}
	.st37{clip-path:url(#SVGID_50_);}
	.st38{fill:url(#SVGID_51_);}
	.st39{clip-path:url(#SVGID_53_);}
	.st40{fill:url(#SVGID_54_);}
	.st41{clip-path:url(#SVGID_56_);}
	.st42{fill:url(#SVGID_57_);}
	.st43{clip-path:url(#SVGID_59_);}
	.st44{fill:url(#SVGID_60_);}
	.st45{clip-path:url(#SVGID_62_);}
	.st46{fill:url(#SVGID_63_);}
	.st47{clip-path:url(#SVGID_65_);}
	.st48{fill:url(#SVGID_66_);}
	.st49{clip-path:url(#SVGID_68_);}
	.st50{fill:url(#SVGID_69_);}
	.st51{clip-path:url(#SVGID_71_);}
	.st52{fill:url(#SVGID_72_);}
	.st53{fill:url(#SVGID_73_);}
	.st54{fill:url(#SVGID_74_);}
	.st55{fill:#EFEBE3;}
	.st56{fill:url(#SVGID_75_);}
	.st57{fill:url(#SVGID_76_);}
	.st58{fill:url(#SVGID_77_);}
	.st59{fill:url(#SVGID_78_);}
	.st60{clip-path:url(#SVGID_80_);}
	.st61{fill:url(#SVGID_81_);}
	.st62{clip-path:url(#SVGID_83_);}
	.st63{fill:url(#SVGID_84_);}
	.st64{clip-path:url(#SVGID_86_);}
	.st65{fill:url(#SVGID_87_);}
	.st66{clip-path:url(#SVGID_89_);}
	.st67{fill:url(#SVGID_90_);}
	.st68{clip-path:url(#SVGID_92_);}
	.st69{fill:url(#SVGID_93_);}
	.st70{clip-path:url(#SVGID_95_);}
	.st71{fill:url(#SVGID_96_);}
	.st72{clip-path:url(#SVGID_98_);}
	.st73{fill:url(#SVGID_99_);}
</style>
<g>
	<linearGradient id="SVGID_2_" gradientUnits="userSpaceOnUse" x1="0.2584" y1="104.25" x2="206.7584" y2="104.25">
		<stop  offset="0" style="stop-color:#CFE0A2"/>
		<stop  offset="0.5" style="stop-color:#A8CD7A"/>
		<stop  offset="1" style="stop-color:#76B342"/>
	</linearGradient>
	<circle style="fill:none;stroke:url(#SVGID_2_);stroke-width:9;stroke-miterlimit:10;" cx="103.5" cy="104.3" r="98.8"/>
	<g>
		<path d="M150.8,121.7l-35.4-13.2c-1.4-0.5-2.5-1.4-3.4-2.6l-10.8-15.3c1.8-2,3.2-4.5,3.7-7.4c1.5-8.2-3.9-16.1-12.1-17.6
			s-16.1,3.9-17.6,12.1c-1.5,8.2,3.9,16.1,12.1,17.6c1.6,0.3,3.1,0.3,4.6,0.1l11.7,22.8c1.1,2.1,3.1,3.6,5.4,4.1l38.6,7.5
			c2.4,0.5,4.8-1.1,5.2-3.6l0.1-0.5C153.3,124,152.4,122.3,150.8,121.7z M80.3,78.6c1-5.4,6.2-9,11.6-8c5.4,1,9,6.2,8,11.6
			c-1,5.4-6.2,9-11.6,8C82.9,89.3,79.3,84,80.3,78.6z"/>
		<path d="M145.9,84.2l-0.4-0.4c-0.9-0.8-2.2-1.1-3.3-0.7c-0.4,0.1-0.8,0.3-1.2,0.6l-25.2,19.8c0.3,0.4,0.7,0.6,1.1,0.8l12.5,4.7
			l16.7-18.4C147.9,88.7,147.8,85.8,145.9,84.2z M99.6,120.3l-4-7.9l-7.1,1.8c-1.2-2.4-3.1-4.6-5.6-6.1c-0.3-0.2-0.7-0.4-1-0.6
			c-5.4-2.8-11.8-2-16.3,1.6c-1.3,1.1-2.5,2.4-3.5,3.9c-1.1,1.8-1.8,3.8-2.1,5.9c-0.8,5.7,1.8,11.7,7,14.9c7.1,4.4,16.4,2.1,20.8-5
			c0.8-1.4,1.4-2.8,1.8-4.3l12.2-1.3C100.9,122.4,100.1,121.4,99.6,120.3z M83.6,125.8c-0.1,0.1-0.1,0.2-0.2,0.4
			c-2.9,4.7-9,6.2-13.7,3.3c-0.9-0.6-1.7-1.3-2.4-2c-2.1-2.5-2.9-5.9-2-9c0.2-0.9,0.6-1.8,1.1-2.7c2.9-4.7,9-6.2,13.7-3.3
			c1.7,1,2.9,2.5,3.7,4.1C85.2,119.4,85.3,122.9,83.6,125.8z"/>
	</g>
</g>
</svg>
