<?xml version="1.0" encoding="utf-8"?>
<!-- Generator: Adobe Illustrator 21.0.2, SVG Export Plug-In . SVG Version: 6.00 Build 0)  -->
<svg version="1.1" id="Layer_1" xmlns="http://www.w3.org/2000/svg" xmlns:xlink="http://www.w3.org/1999/xlink" x="0px" y="0px"
	 viewBox="0 0 210 208" style="enable-background:new 0 0 210 208;" xml:space="preserve">
<style type="text/css">
	.st0{clip-path:url(#SVGID_2_);}
	.st1{fill:url(#SVGID_3_);}
	.st2{clip-path:url(#SVGID_5_);}
	.st3{fill:url(#SVGID_6_);}
	.st4{clip-path:url(#SVGID_8_);}
	.st5{fill:url(#SVGID_9_);}
	.st6{clip-path:url(#SVGID_11_);}
	.st7{fill:url(#SVGID_12_);}
	.st8{clip-path:url(#SVGID_14_);}
	.st9{fill:url(#SVGID_15_);}
	.st10{clip-path:url(#SVGID_17_);}
	.st11{fill:url(#SVGID_18_);}
	.st12{clip-path:url(#SVGID_20_);}
	.st13{fill:url(#SVGID_21_);}
	.st14{clip-path:url(#SVGID_23_);}
	.st15{fill:url(#SVGID_24_);}
	.st16{clip-path:url(#SVGID_26_);}
	.st17{fill:url(#SVGID_27_);}
	.st18{clip-path:url(#SVGID_29_);}
	.st19{fill:url(#SVGID_30_);}
	.st20{clip-path:url(#SVGID_32_);}
	.st21{fill:url(#SVGID_33_);}
	.st22{clip-path:url(#SVGID_35_);}
	.st23{fill:url(#SVGID_36_);}
	.st24{clip-path:url(#SVGID_38_);}
	.st25{fill:url(#SVGID_39_);}
	.st26{clip-path:url(#SVGID_41_);}
	.st27{fill:url(#SVGID_42_);}
	.st28{fill:none;stroke:#A0A0A0;stroke-width:17;stroke-miterlimit:10;}
	.st29{fill:none;stroke:#A0A0A0;stroke-width:17;stroke-miterlimit:10;stroke-dasharray:0.4996,3.9965;}
	.st30{fill:none;stroke:url(#SVGID_43_);stroke-width:5;stroke-miterlimit:10;}
	.st31{fill:url(#SVGID_44_);}
	.st32{fill:url(#SVGID_45_);}
	.st33{fill:none;stroke:url(#SVGID_46_);stroke-width:9;stroke-miterlimit:10;}
	.st34{fill:none;stroke:url(#SVGID_47_);stroke-width:9;stroke-miterlimit:10;}
	.st35{fill:#231F20;}
	.st36{fill:none;stroke:url(#SVGID_48_);stroke-width:9;stroke-miterlimit:10;}
	.st37{clip-path:url(#SVGID_50_);}
	.st38{fill:url(#SVGID_51_);}
	.st39{clip-path:url(#SVGID_53_);}
	.st40{fill:url(#SVGID_54_);}
	.st41{clip-path:url(#SVGID_56_);}
	.st42{fill:url(#SVGID_57_);}
	.st43{clip-path:url(#SVGID_59_);}
	.st44{fill:url(#SVGID_60_);}
	.st45{clip-path:url(#SVGID_62_);}
	.st46{fill:url(#SVGID_63_);}
	.st47{clip-path:url(#SVGID_65_);}
	.st48{fill:url(#SVGID_66_);}
	.st49{clip-path:url(#SVGID_68_);}
	.st50{fill:url(#SVGID_69_);}
	.st51{clip-path:url(#SVGID_71_);}
	.st52{fill:url(#SVGID_72_);}
	.st53{fill:url(#SVGID_73_);}
	.st54{fill:url(#SVGID_74_);}
	.st55{fill:#EFEBE3;}
	.st56{fill:url(#SVGID_75_);}
	.st57{fill:url(#SVGID_76_);}
	.st58{fill:url(#SVGID_77_);}
	.st59{fill:url(#SVGID_78_);}
	.st60{clip-path:url(#SVGID_80_);}
	.st61{fill:url(#SVGID_81_);}
	.st62{clip-path:url(#SVGID_83_);}
	.st63{fill:url(#SVGID_84_);}
	.st64{clip-path:url(#SVGID_86_);}
	.st65{fill:url(#SVGID_87_);}
	.st66{clip-path:url(#SVGID_89_);}
	.st67{fill:url(#SVGID_90_);}
	.st68{clip-path:url(#SVGID_92_);}
	.st69{fill:url(#SVGID_93_);}
	.st70{clip-path:url(#SVGID_95_);}
	.st71{fill:url(#SVGID_96_);}
	.st72{clip-path:url(#SVGID_98_);}
	.st73{fill:url(#SVGID_99_);}
</style>
<g>
	<linearGradient id="SVGID_2_" gradientUnits="userSpaceOnUse" x1="0.3895" y1="104.25" x2="206.8895" y2="104.25">
		<stop  offset="0" style="stop-color:#35BEED"/>
		<stop  offset="0.5" style="stop-color:#31A7DF"/>
		<stop  offset="1" style="stop-color:#2190CE"/>
	</linearGradient>
	<circle style="fill:none;stroke:url(#SVGID_2_);stroke-width:9;stroke-miterlimit:10;" cx="103.6" cy="104.3" r="98.8"/>
	<g>
		<path class="st35" d="M111.8,115.6c-1-0.6-2.4-1.1-4.2-1.7v11.9c0.7-0.1,1.3-0.3,1.8-0.5c3-1.1,4.5-3,4.5-5.9
			C114.1,117.8,113.3,116.5,111.8,115.6z"/>
		<path class="st35" d="M92.9,96.4c0,1.8,0.8,3.2,2.5,4.1c0.7,0.4,1.9,0.8,3.6,1.3V90.4c-1.4,0.3-2.6,0.7-3.6,1.4
			C93.7,92.9,92.9,94.4,92.9,96.4z"/>
		<path class="st35" d="M146.5,71.7c-12-11.9-31.3-11.8-43.2,0.1c-11.9-12-31.2-12-43.2-0.1c-12,11.9-12.2,31.1,0.9,44.2
			c14.7,14.7,38.2,38.2,42.3,42.3c4.1-4.1,27.6-27.6,42.3-42.3C158.7,102.8,158.4,83.6,146.5,71.7z M118.9,130.2
			c-2.8,2.4-6.6,3.9-11.2,4.4v5.1H99v-5.2c-4.5-0.6-8.1-2-11-4.2c-3.8-3-5.7-7.2-5.7-12.4h10.1c0.3,2.3,1,4,1.9,5.2
			c1.1,1.3,2.6,2.2,4.7,2.7v-13.8c-5.2-1.2-8.8-2.4-10.8-3.8c-3.4-2.3-5.1-6-5.1-11c0-4.5,1.7-8.3,5-11.3c2.6-2.4,6.3-3.8,10.9-4.3
			V77c0,0,0,0,0,0l8.7,0v4.7c3.4,0.6,6.4,1.9,9,3.8c3.8,2.8,5.8,6.9,6,12.3h-10.2c-0.2-3-1.6-5.2-4.1-6.5c-0.2-0.1-0.5-0.2-0.7-0.3
			v12.8l3.3,0.8c3.9,0.9,6.8,2.1,8.8,3.7c3,2.4,4.5,5.8,4.5,10.4C124.3,123.3,122.5,127.2,118.9,130.2z"/>
	</g>
</g>
</svg>
