<?xml version="1.0" encoding="utf-8"?>
<!-- Generator: Adobe Illustrator 21.0.2, SVG Export Plug-In . SVG Version: 6.00 Build 0)  -->
<svg version="1.1" id="Layer_1" xmlns="http://www.w3.org/2000/svg" xmlns:xlink="http://www.w3.org/1999/xlink" x="0px" y="0px"
	 viewBox="0 0 30 30" style="enable-background:new 0 0 30 30;" xml:space="preserve">
<style type="text/css">
	.st0{clip-path:url(#SVGID_2_);}
	.st1{fill:url(#SVGID_3_);}
	.st2{clip-path:url(#SVGID_5_);}
	.st3{fill:url(#SVGID_6_);}
	.st4{clip-path:url(#SVGID_8_);}
	.st5{fill:url(#SVGID_9_);}
	.st6{clip-path:url(#SVGID_11_);}
	.st7{fill:url(#SVGID_12_);}
	.st8{clip-path:url(#SVGID_14_);}
	.st9{fill:url(#SVGID_15_);}
	.st10{clip-path:url(#SVGID_17_);}
	.st11{fill:url(#SVGID_18_);}
	.st12{clip-path:url(#SVGID_20_);}
	.st13{fill:url(#SVGID_21_);}
	.st14{clip-path:url(#SVGID_23_);}
	.st15{fill:url(#SVGID_24_);}
	.st16{clip-path:url(#SVGID_26_);}
	.st17{fill:url(#SVGID_27_);}
	.st18{clip-path:url(#SVGID_29_);}
	.st19{fill:url(#SVGID_30_);}
	.st20{clip-path:url(#SVGID_32_);}
	.st21{fill:url(#SVGID_33_);}
	.st22{clip-path:url(#SVGID_35_);}
	.st23{fill:url(#SVGID_36_);}
	.st24{clip-path:url(#SVGID_38_);}
	.st25{fill:url(#SVGID_39_);}
	.st26{clip-path:url(#SVGID_41_);}
	.st27{fill:url(#SVGID_42_);}
	.st28{fill:none;stroke:#A0A0A0;stroke-width:17;stroke-miterlimit:10;}
	.st29{fill:none;stroke:#A0A0A0;stroke-width:17;stroke-miterlimit:10;stroke-dasharray:0.4996,3.9965;}
	.st30{fill:none;stroke:url(#SVGID_43_);stroke-width:5;stroke-miterlimit:10;}
	.st31{fill:url(#SVGID_44_);}
	.st32{fill:url(#SVGID_45_);}
	.st33{fill:none;stroke:url(#SVGID_46_);stroke-width:9;stroke-miterlimit:10;}
	.st34{fill:none;stroke:url(#SVGID_47_);stroke-width:9;stroke-miterlimit:10;}
	.st35{fill:#231F20;}
	.st36{fill:none;stroke:url(#SVGID_48_);stroke-width:9;stroke-miterlimit:10;}
	.st37{clip-path:url(#SVGID_50_);}
	.st38{fill:url(#SVGID_51_);}
	.st39{clip-path:url(#SVGID_53_);}
	.st40{fill:url(#SVGID_54_);}
	.st41{clip-path:url(#SVGID_56_);}
	.st42{fill:url(#SVGID_57_);}
	.st43{clip-path:url(#SVGID_59_);}
	.st44{fill:url(#SVGID_60_);}
	.st45{clip-path:url(#SVGID_62_);}
	.st46{fill:url(#SVGID_63_);}
	.st47{clip-path:url(#SVGID_65_);}
	.st48{fill:url(#SVGID_66_);}
	.st49{clip-path:url(#SVGID_68_);}
	.st50{fill:url(#SVGID_69_);}
	.st51{clip-path:url(#SVGID_71_);}
	.st52{fill:url(#SVGID_72_);}
	.st53{fill:url(#SVGID_73_);}
	.st54{fill:url(#SVGID_74_);}
	.st55{fill:#EFEBE3;}
	.st56{fill:url(#SVGID_75_);}
	.st57{fill:url(#SVGID_76_);}
	.st58{fill:url(#SVGID_77_);}
	.st59{fill:url(#SVGID_78_);}
	.st60{clip-path:url(#SVGID_80_);}
	.st61{fill:url(#SVGID_81_);}
	.st62{clip-path:url(#SVGID_83_);}
	.st63{fill:url(#SVGID_84_);}
	.st64{clip-path:url(#SVGID_86_);}
	.st65{fill:url(#SVGID_87_);}
	.st66{clip-path:url(#SVGID_89_);}
	.st67{fill:url(#SVGID_90_);}
	.st68{clip-path:url(#SVGID_92_);}
	.st69{fill:url(#SVGID_93_);}
	.st70{clip-path:url(#SVGID_95_);}
	.st71{fill:url(#SVGID_96_);}
	.st72{clip-path:url(#SVGID_98_);}
	.st73{fill:url(#SVGID_99_);}
</style>
<g>
	<defs>
		<path id="SVGID_55_" d="M-80.9,49.9c-25.8-11.4-46.4,20-55,39.8c-14.4,34-20.3,73.1-23.5,109.6c-7.5,87-21.1,157.8-0.4,162.9
			c20.7,5.2,47-61.8,75.5-144.4c10.7-30.3,19.3-61.3,25.7-92.8c1.4-7.1,2.3-14.2,2.6-21.4c0.9-21.3-4-44.1-24.7-53.6L-80.9,49.9z"/>
	</defs>
	<clipPath id="SVGID_2_">
		<use xlink:href="#SVGID_55_"  style="overflow:visible;"/>
	</clipPath>
	<g class="st0">
		
			<linearGradient id="SVGID_3_" gradientUnits="userSpaceOnUse" x1="-2816.9934" y1="-157.1051" x2="-2814.1709" y2="-157.1051" gradientTransform="matrix(10.5335 94.918 93.7404 -11.3482 44259.4023 265685.4688)">
			<stop  offset="0" style="stop-color:#F9E29E"/>
			<stop  offset="6.000000e-02" style="stop-color:#F9E094"/>
			<stop  offset="0.17" style="stop-color:#FADB7A"/>
			<stop  offset="0.31" style="stop-color:#FBD250"/>
			<stop  offset="0.48" style="stop-color:#FDC716"/>
			<stop  offset="0.5" style="stop-color:#FDC50D"/>
			<stop  offset="1" style="stop-color:#F4A81C"/>
		</linearGradient>
		<polygon class="st1" points="-275.6,55.5 -238.9,386.2 21.5,354.7 -15.2,24 		"/>
	</g>
</g>
<g>
	<g>
		<g>
			<linearGradient id="SVGID_5_" gradientUnits="userSpaceOnUse" x1="0.4528" y1="15.3701" x2="29.7129" y2="15.3701">
				<stop  offset="0" style="stop-color:#CF74A9"/>
				<stop  offset="0.26" style="stop-color:#C84B97"/>
				<stop  offset="0.5" style="stop-color:#C02184"/>
				<stop  offset="1" style="stop-color:#962B87"/>
			</linearGradient>
			<path style="fill:url(#SVGID_5_);" d="M15.1,30C7,30,0.5,23.4,0.5,15.4S7,0.7,15.1,0.7c8.1,0,14.6,6.6,14.6,14.6S23.1,30,15.1,30
				z M15.1,1.3c-7.7,0-14,6.3-14,14s6.3,14,14,14c7.7,0,14-6.3,14-14S22.8,1.3,15.1,1.3z"/>
		</g>
		<g>
			<linearGradient id="SVGID_6_" gradientUnits="userSpaceOnUse" x1="2.7883" y1="15.3703" x2="27.3775" y2="15.3703">
				<stop  offset="0" style="stop-color:#CF74A9"/>
				<stop  offset="0.26" style="stop-color:#C84B97"/>
				<stop  offset="0.5" style="stop-color:#C02184"/>
				<stop  offset="1" style="stop-color:#962B87"/>
			</linearGradient>
			<circle class="st3" cx="15.1" cy="15.4" r="12.3"/>
		</g>
	</g>
	<g>
		<g>
			<path class="st55" d="M15.1,9.8c1.9,0,2.1,0,2.9,0c0.7,0,1.1,0.1,1.3,0.2c0.3,0.1,0.6,0.3,0.8,0.5c0.2,0.2,0.4,0.5,0.5,0.8
				c0.1,0.3,0.2,0.6,0.2,1.3c0,0.7,0,1,0,2.9c0,1.9,0,2.1,0,2.9c0,0.7-0.1,1.1-0.2,1.3c-0.1,0.3-0.3,0.6-0.5,0.8
				c-0.2,0.2-0.5,0.4-0.8,0.5c-0.3,0.1-0.6,0.2-1.3,0.2c-0.7,0-1,0-2.9,0c-1.9,0-2.1,0-2.9,0c-0.7,0-1.1-0.1-1.3-0.2
				c-0.3-0.1-0.6-0.3-0.8-0.5c-0.2-0.2-0.4-0.5-0.5-0.8c-0.1-0.3-0.2-0.6-0.2-1.3c0-0.7,0-1,0-2.9c0-1.9,0-2.1,0-2.9
				c0-0.7,0.1-1.1,0.2-1.3c0.1-0.3,0.3-0.6,0.5-0.8c0.2-0.2,0.5-0.4,0.8-0.5c0.3-0.1,0.6-0.2,1.3-0.2C13,9.8,13.2,9.8,15.1,9.8
				 M15.1,8.5c-1.9,0-2.2,0-2.9,0c-0.8,0-1.3,0.2-1.7,0.3C10,9.1,9.6,9.3,9.2,9.7c-0.4,0.4-0.6,0.8-0.8,1.3c-0.2,0.5-0.3,1-0.3,1.7
				c0,0.8,0,1,0,2.9c0,1.9,0,2.2,0,2.9c0,0.8,0.2,1.3,0.3,1.7c0.2,0.5,0.4,0.9,0.8,1.3c0.4,0.4,0.8,0.6,1.3,0.8
				c0.5,0.2,1,0.3,1.7,0.3c0.8,0,1,0,2.9,0c1.9,0,2.2,0,2.9,0c0.8,0,1.3-0.2,1.7-0.3c0.5-0.2,0.9-0.4,1.3-0.8
				c0.4-0.4,0.6-0.8,0.8-1.3c0.2-0.5,0.3-1,0.3-1.7c0-0.8,0-1,0-2.9c0-1.9,0-2.2,0-2.9c0-0.8-0.2-1.3-0.3-1.7
				c-0.2-0.5-0.4-0.9-0.8-1.3c-0.4-0.4-0.8-0.6-1.3-0.8c-0.5-0.2-1-0.3-1.7-0.3C17.3,8.5,17,8.5,15.1,8.5"/>
		</g>
		<g>
			<path class="st55" d="M15.1,12c-2,0-3.7,1.6-3.7,3.7c0,2,1.6,3.7,3.7,3.7s3.7-1.6,3.7-3.7C18.7,13.6,17.1,12,15.1,12 M15.1,18
				c-1.3,0-2.4-1.1-2.4-2.4s1.1-2.4,2.4-2.4c1.3,0,2.4,1.1,2.4,2.4S16.4,18,15.1,18"/>
		</g>
		<g>
			<path class="st55" d="M19.7,11.8c0,0.5-0.4,0.9-0.9,0.9c-0.5,0-0.9-0.4-0.9-0.9c0-0.5,0.4-0.9,0.9-0.9
				C19.4,11,19.7,11.4,19.7,11.8"/>
		</g>
	</g>
</g>
<g>
	<defs>
		<path id="SVGID_82_" d="M103.1,65.5c-24.7-18.8-51.7,42.2-57.9,56.9c-16.4,38.9-33.2,69.4-24.3,74.9c8.9,5.5,31-21.2,56.6-54.8
			c7-9.1,24-29.6,30.6-48c3-8.4,3.8-16.3,0.5-22.7C107.2,69.4,105.4,67.3,103.1,65.5"/>
	</defs>
	<clipPath id="SVGID_8_">
		<use xlink:href="#SVGID_82_"  style="overflow:visible;"/>
	</clipPath>
	<g class="st4">
		
			<linearGradient id="SVGID_9_" gradientUnits="userSpaceOnUse" x1="-2823.4758" y1="-151.0384" x2="-2821.7432" y2="-151.0384" gradientTransform="matrix(-14.8911 73.7721 73.7721 14.8911 -30835.5156 210614.5781)">
			<stop  offset="0" style="stop-color:#CFE0A2"/>
			<stop  offset="0.5" style="stop-color:#A8CD7A"/>
			<stop  offset="1" style="stop-color:#76B342"/>
		</linearGradient>
		<polygon class="st5" points="-15.7,18 163.4,54.2 128,229.6 -51.1,193.4 		"/>
	</g>
</g>
<g>
	<defs>
		<path id="SVGID_85_" d="M96,121.3c-19.5,1.4-112.3-1.7-114.3,27.8c-1.2,18.1,43.5,29.1,98.2,39.6c30.7,5.9,96.7,5.8,96.7,5.8
			c6.6-31-3.9-51.4-23.2-62.7C138.3,123,117.8,119.7,96,121.3"/>
	</defs>
	<clipPath id="SVGID_11_">
		<use xlink:href="#SVGID_85_"  style="overflow:visible;"/>
	</clipPath>
	<g class="st6">
		
			<linearGradient id="SVGID_12_" gradientUnits="userSpaceOnUse" x1="-2846.8359" y1="-157.7225" x2="-2844.4719" y2="-157.7225" gradientTransform="matrix(-66.3039 26.9983 18.1841 85.653 -185733.1875 90495.6641)">
			<stop  offset="0" style="stop-color:#F29054"/>
			<stop  offset="0.5" style="stop-color:#EE7724"/>
			<stop  offset="1" style="stop-color:#D06329"/>
		</linearGradient>
		<polygon class="st7" points="163.9,-3.2 -52.9,85.1 -3.6,317.6 213.3,229.3 		"/>
	</g>
</g>
</svg>
