<svg xmlns="http://www.w3.org/2000/svg" xmlns:xlink="http://www.w3.org/1999/xlink" version="1.1" x="0px" y="0px" viewBox="0 0 100 125" enable-background="new 0 0 100 100" xml:space="preserve"><path d="M93.7,55.6c-0.9-0.6-19.9-12.3-32.5-20l-4.1-2.5l4.8-0.4c0.6-0.1,14.3-1.2,19.3-1.6c5-0.4,5.5-2.4,5.4-4.1  c0-0.6-0.2-1-0.6-1.3c-1-0.9-3.9-0.9-3.9-0.9c-0.3,0-31.1-1.3-37.2-1.2c-0.8,0-1.7,0-2.7-0.1c-3.3-0.1-7-0.2-10.8,1.5l-0.8,0.4  l-13.1-7.7L5.8,40.4l12.2,7.2l0,0.9C18.5,59.4,28.3,66,34,69c3.6,1.9,18.2,8.3,24.4,11.1c2,0.9,3.2,1.4,3.4,1.5  c2.3,1.2,3.1,0.5,3.6-0.3c0.6-1,0.4-1.6,0.2-2c-0.3-0.5-0.8-0.9-1.4-1.3c-1-0.6-16.5-10.4-17.2-10.8l1.4-2.8  C58,68.3,66.4,72,70.9,74c1.4,0.6,2.6,1.2,3.1,1.4l0-0.1h0c0,0,2.4,1.2,3.6-0.9c1.2-1.9,0-3.1-0.8-3.6c-0.9-0.5-14.7-7.5-23.8-12.1  l1.4-2.9c0.3,0.1,27.8,13.2,29,13.7c0.4,0.2,2.6,1,3.9-1.2c0.5-0.8,0.6-1.6,0.5-2.3c-0.2-0.7-0.7-1.4-1.6-1.9  c-0.6-0.4-18.4-10.5-25.1-14.4l1.5-2.8c2.8,1.3,27.1,13,28.2,13.6c0.7,0.4,2.6,0.7,3.7-1.1C95.8,57.3,94.1,55.8,93.7,55.6z"/><text x="0" y="115" fill="#000000" font-size="5px" font-weight="bold" font-family="'Helvetica Neue', Helvetica, Arial-Unicode, Arial, Sans-serif">Created by Eugen Belyakoff</text><text x="0" y="120" fill="#000000" font-size="5px" font-weight="bold" font-family="'Helvetica Neue', Helvetica, Arial-Unicode, Arial, Sans-serif">from the Noun Project</text></svg>